<svg width="26" height="28" viewBox="0 0 26 28" fill="none" xmlns="http://www.w3.org/2000/svg">
<path d="M22.5599 19.678C22.2255 20.1216 21.7923 20.4811 21.2946 20.7279C20.797 20.9748 20.2486 21.1022 19.6931 21.1C19.693 21.1 19.6929 21.1 19.6928 21.1M22.5599 19.678L19.6931 21L19.6928 21.1M22.5599 19.678C22.8975 19.2372 23.1278 18.7238 23.2323 18.1784C23.3369 17.633 23.3129 17.0706 23.1622 16.5361L20.9457 8.5611L20.8493 8.58788L20.9457 8.56109C20.4295 6.70438 19.3075 5.07349 17.758 3.92769C16.2085 2.78188 14.3204 2.18693 12.3939 2.2374C10.4675 2.28786 8.61315 2.98086 7.12576 4.20622C5.63837 5.43158 4.60328 7.11898 4.18503 9.00018L4.18503 9.00019L2.47003 16.7188C2.35305 17.2451 2.35574 17.7908 2.4779 18.3159C2.60006 18.8409 2.83857 19.3318 3.17582 19.7523C3.51308 20.1729 3.94046 20.5123 4.42644 20.7455C4.91241 20.9788 5.44457 21.1 5.98363 21.1L19.6928 21.1M22.5599 19.678L19.6928 21.1M25.2178 15.9658L25.2381 16.039H25.2388C25.4574 16.8686 25.4871 17.7371 25.3254 18.5802C25.1588 19.4483 24.7939 20.2661 24.259 20.9697C23.7241 21.6733 23.0338 22.2438 22.2419 22.6365C21.4501 23.0292 20.5782 23.2334 19.6943 23.2334H18.7166H18.6349L18.6186 23.3135C18.3555 24.6095 17.6523 25.7748 16.6283 26.6117C15.6043 27.4487 14.3225 27.9059 13 27.9059C11.6775 27.9059 10.3956 27.4487 9.37163 26.6117C8.34764 25.7748 7.64449 24.6095 7.38131 23.3135L7.36505 23.2334H7.28331H5.98365C5.12505 23.2334 4.2774 23.0406 3.5033 22.6692C2.7292 22.2977 2.0484 21.7572 1.51116 21.0875C0.97393 20.4177 0.593981 19.6358 0.399368 18.7996C0.204755 17.9633 0.200447 17.0941 0.386761 16.2559L2.10293 8.53842C2.62449 6.19291 3.91511 4.08904 5.76964 2.56123C7.62416 1.03343 9.93617 0.169365 12.3381 0.106389C14.7401 0.0434134 17.0942 0.78514 19.0263 2.21367C20.9583 3.6422 22.3574 5.67555 23.0011 7.99049L25.2178 15.9658ZM9.71465 23.2334H9.57323L9.62037 23.3667C9.86767 24.0662 10.325 24.6722 10.9299 25.1018C11.5348 25.5314 12.2577 25.7636 12.9996 25.7667L13 25.6667L13.0004 25.7667C13.7423 25.7636 14.4651 25.5314 15.07 25.1018C15.6749 24.6722 16.1323 24.0662 16.3796 23.3667L16.4267 23.2334H16.2853H9.71465Z" fill="#6D7D93" stroke="white" stroke-width="0.2"/>
</svg>
