<svg width="28" height="28" viewBox="0 0 28 28" fill="none" xmlns="http://www.w3.org/2000/svg">
<g clip-path="url(#clip0_1870_25239)">
<path d="M23.5599 19.678C23.2255 20.1216 22.7923 20.4811 22.2946 20.7279C21.797 20.9748 21.2486 21.1022 20.6931 21.1C20.693 21.1 20.6929 21.1 20.6928 21.1M23.5599 19.678L20.6931 21L20.6928 21.1M23.5599 19.678C23.8975 19.2372 24.1278 18.7238 24.2323 18.1784C24.3369 17.633 24.3129 17.0706 24.1622 16.5361L21.9457 8.5611L21.8493 8.58788L21.9457 8.56109C21.4295 6.70438 20.3075 5.07349 18.758 3.92769C17.2085 2.78188 15.3204 2.18693 13.3939 2.2374C11.4675 2.28786 9.61315 2.98086 8.12576 4.20622C6.63837 5.43158 5.60328 7.11898 5.18503 9.00018L5.18503 9.00019L3.47003 16.7188C3.35305 17.2451 3.35574 17.7908 3.4779 18.3159C3.60006 18.8409 3.83857 19.3318 4.17582 19.7523C4.51308 20.1729 4.94046 20.5123 5.42644 20.7455C5.91241 20.9788 6.44457 21.1 6.98363 21.1L20.6928 21.1M23.5599 19.678L20.6928 21.1M26.2178 15.9658L26.2381 16.039H26.2388C26.4574 16.8686 26.4871 17.7371 26.3254 18.5802C26.1588 19.4483 25.7939 20.2661 25.259 20.9697C24.7241 21.6733 24.0338 22.2438 23.2419 22.6365C22.4501 23.0292 21.5782 23.2334 20.6943 23.2334H19.7166H19.6349L19.6186 23.3135C19.3555 24.6095 18.6523 25.7748 17.6283 26.6117C16.6043 27.4487 15.3225 27.9059 14 27.9059C12.6775 27.9059 11.3956 27.4487 10.3716 26.6117C9.34764 25.7748 8.64449 24.6095 8.38131 23.3135L8.36505 23.2334H8.28331H6.98365C6.12505 23.2334 5.2774 23.0406 4.5033 22.6692C3.7292 22.2977 3.0484 21.7572 2.51116 21.0875C1.97393 20.4177 1.59398 19.6358 1.39937 18.7996C1.20475 17.9633 1.20045 17.0941 1.38676 16.2559L3.10293 8.53842C3.62449 6.19291 4.91511 4.08904 6.76964 2.56123C8.62416 1.03343 10.9362 0.169365 13.3381 0.106389C15.7401 0.0434134 18.0942 0.78514 20.0263 2.21367C21.9583 3.6422 23.3574 5.67555 24.0011 7.99049L26.2178 15.9658ZM10.7146 23.2334H10.5732L10.6204 23.3667C10.8677 24.0662 11.325 24.6722 11.9299 25.1018C12.5348 25.5314 13.2577 25.7636 13.9996 25.7667L14 25.6667L14.0004 25.7667C14.7423 25.7636 15.4651 25.5314 16.07 25.1018C16.6749 24.6722 17.1323 24.0662 17.3796 23.3667L17.4267 23.2334H17.2853H10.7146Z" fill="#92C9D1" stroke="white" stroke-width="0.2"/>
</g>
<defs>
<clipPath id="clip0_1870_25239">
<rect width="28" height="28" fill="white"/>
</clipPath>
</defs>
</svg>
