<svg width="245" height="282" viewBox="0 0 245 282" fill="none" xmlns="http://www.w3.org/2000/svg">
<g filter="url(#filter0_d_631_24288)">
<path d="M324.741 -178.442C335.907 -182.471 437.899 -60.9936 436.343 -48.6732C434.787 -36.3528 210.98 177.75 210.98 177.75C152.148 114.225 120.182 75.1906 66.4035 -5.29228C66.4035 -5.29228 313.574 -174.413 324.741 -178.442Z" fill="#321707"/>
<path d="M436.343 -48.6732L437.113 -48.5758L437.113 -48.5758L436.343 -48.6732ZM66.4035 -5.29228L65.9648 -5.93345L65.3306 -5.49954L65.7575 -4.86065L66.4035 -5.29228ZM210.98 177.75L210.41 178.278L210.947 178.857L211.517 178.311L210.98 177.75ZM437.113 -48.5758C437.179 -49.097 437.103 -49.6952 436.945 -50.3292C436.784 -50.9725 436.525 -51.7032 436.184 -52.5086C435.5 -54.1194 434.459 -56.0874 433.12 -58.3477C430.44 -62.8714 426.524 -68.6342 421.759 -75.1714C412.227 -88.2496 399.263 -104.479 385.905 -120.192C372.547 -135.904 358.784 -151.114 347.655 -162.15C342.093 -167.665 337.172 -172.154 333.279 -175.144C331.335 -176.637 329.622 -177.776 328.195 -178.481C327.482 -178.833 326.816 -179.088 326.211 -179.219C325.613 -179.348 325.014 -179.366 324.477 -179.173L325.004 -177.711C325.166 -177.769 325.442 -177.795 325.884 -177.7C326.321 -177.606 326.861 -177.407 327.508 -177.087C328.801 -176.449 330.422 -175.379 332.333 -173.912C336.149 -170.982 341.015 -166.546 346.561 -161.046C357.647 -150.053 371.379 -134.879 384.721 -119.185C398.062 -103.492 411.001 -87.2942 420.504 -74.2562C425.256 -67.7353 429.14 -62.0179 431.784 -57.5558C433.106 -55.3232 434.108 -53.422 434.753 -51.9017C435.076 -51.1416 435.303 -50.4914 435.437 -49.9525C435.574 -49.4044 435.603 -49.0194 435.572 -48.7705L437.113 -48.5758ZM324.477 -179.173C323.691 -178.889 321.997 -177.944 319.599 -176.499C317.166 -175.034 313.931 -173.006 310.016 -170.5C302.183 -165.486 291.608 -158.546 279.235 -150.335C254.49 -133.911 222.544 -112.392 190.949 -90.9996C159.354 -69.607 128.108 -48.3405 104.761 -32.4222C93.0872 -24.4631 83.3882 -17.8409 76.6077 -13.2085C73.2174 -10.8923 70.5567 -9.0736 68.7436 -7.83388C67.837 -7.21403 67.1423 -6.73893 66.6743 -6.41879C66.4402 -6.25872 66.2629 -6.13739 66.144 -6.05608C66.0846 -6.01542 66.0398 -5.98477 66.0098 -5.96427C65.9949 -5.95403 65.9836 -5.94632 65.9761 -5.94118C65.9723 -5.93861 65.9695 -5.93668 65.9676 -5.93539C65.9657 -5.9341 65.9648 -5.93345 66.4035 -5.29228C66.8422 -4.6511 66.8431 -4.65175 66.845 -4.65303C66.8469 -4.65432 66.8497 -4.65625 66.8535 -4.65882C66.861 -4.66395 66.8722 -4.67165 66.8872 -4.68189C66.9171 -4.70237 66.9619 -4.73302 67.0213 -4.77366C67.1402 -4.85495 67.3175 -4.97626 67.5515 -5.1363C68.0195 -5.45639 68.7141 -5.93144 69.6206 -6.55125C71.4335 -7.79086 74.0941 -9.60949 77.4842 -11.9256C84.2644 -16.5577 93.9629 -23.1796 105.636 -31.1384C128.982 -47.0562 160.227 -68.3217 191.82 -89.713C223.414 -111.105 255.355 -132.621 280.094 -149.04C292.465 -157.25 303.031 -164.184 310.853 -169.191C314.765 -171.694 317.985 -173.713 320.4 -175.168C322.849 -176.643 324.395 -177.491 325.004 -177.711L324.477 -179.173ZM65.7575 -4.86065C119.561 75.6593 151.553 114.726 210.41 178.278L211.55 177.222C152.744 113.724 120.803 74.7218 67.0494 -5.7239L65.7575 -4.86065ZM210.98 177.75C211.517 178.311 211.518 178.311 211.52 178.309C211.522 178.307 211.524 178.305 211.527 178.302C211.534 178.295 211.545 178.285 211.558 178.272C211.585 178.246 211.626 178.208 211.68 178.156C211.787 178.053 211.948 177.899 212.16 177.697C212.583 177.291 213.212 176.689 214.032 175.903C215.671 174.332 218.076 172.026 221.138 169.087C227.261 163.208 236.01 154.796 246.514 144.663C267.521 124.398 295.547 97.2481 323.622 69.7132C351.696 42.1793 379.823 14.2562 401.03 -7.5553C411.633 -18.46 420.512 -27.8436 426.792 -34.8898C429.931 -38.4116 432.43 -41.3596 434.171 -43.6267C435.041 -44.7592 435.732 -45.7344 436.222 -46.5341C436.69 -47.2988 437.042 -48.0081 437.113 -48.5758L435.572 -48.7705C435.546 -48.5682 435.367 -48.1134 434.897 -47.3452C434.448 -46.6121 433.794 -45.6857 432.939 -44.5733C431.232 -42.3506 428.762 -39.4354 425.632 -35.9237C419.375 -28.9029 410.514 -19.5384 399.916 -8.63846C378.722 13.1595 350.606 41.0722 322.534 68.6039C294.463 96.1348 266.44 123.281 245.435 143.545C234.932 153.677 226.184 162.088 220.062 167.966C217.001 170.905 214.596 173.211 212.957 174.782C212.137 175.567 211.508 176.169 211.085 176.574C210.873 176.777 210.713 176.931 210.605 177.034C210.552 177.085 210.511 177.124 210.484 177.15C210.47 177.163 210.46 177.172 210.453 177.179C210.45 177.182 210.447 177.185 210.446 177.186C210.444 177.188 210.443 177.189 210.98 177.75Z" fill="#49332D"/>
<path d="M215.462 176.141L215.462 176.141C215.759 176.441 216.057 176.741 216.356 177.041C216.926 177.613 217.268 178.585 217.248 179.756C217.228 180.914 216.851 182.175 216.105 183.232C215.366 184.28 214.267 185.126 212.779 185.488C211.3 185.847 209.373 185.742 206.954 184.78C206.93 184.763 206.875 184.722 206.779 184.643C206.644 184.531 206.464 184.375 206.239 184.171C205.79 183.765 205.18 183.19 204.423 182.457C202.91 180.991 200.822 178.909 198.278 176.315C193.193 171.128 186.297 163.904 178.556 155.496C163.072 138.676 144.225 117.138 129.732 97.6982C120.125 84.8124 109.31 70.9548 98.9588 57.6897C93.5606 50.7723 88.2882 44.016 83.3783 37.6427C76.2108 28.3388 69.8152 19.8507 64.9157 12.8543C60.0231 5.86757 56.6821 0.45006 55.5137 -2.79408C55.1817 -4.58298 55.8582 -7.03043 57.6898 -8.53005C59.4548 -9.97527 62.4692 -10.6668 67.0754 -8.63242C88.2097 22.0086 100.997 40.0585 126.555 72.864L126.56 72.8705L126.565 72.8768C129.637 76.6536 132.664 80.382 135.653 84.0647C163.177 117.973 187.554 148.003 215.462 176.141Z" fill="#321707" stroke="#49332D" stroke-width="1.55379"/>
<path d="M227.308 65.0705C229.114 62.5091 223.67 58.0728 212.538 58.7776C201.407 59.4825 198.354 65.7422 201.162 67.5732C202.448 68.4114 207.831 69.1087 213.275 68.7066C219.724 68.2304 226.329 66.4594 227.308 65.0705Z" fill="#FAF4ED"/>
<path d="M215.851 75.8348C229.583 74.6736 229.4 65.1457 227.031 66.6011C215.49 71.1371 211.362 70.9803 202.772 69.4499C200.218 68.7394 202.12 76.9959 215.851 75.8348Z" fill="#FAF4ED"/>
<path d="M218.264 77.6256C217.822 78.7612 215.128 88.8805 219.707 87.5451C221.592 86.9952 224.269 84.8851 226.027 82.1292C228.538 78.1919 230.033 73.7268 229.377 72.2332C228.705 70.7026 228.947 72.9861 223.571 74.957C218.196 76.9278 218.706 76.49 218.264 77.6256Z" fill="#FAF4ED"/>
<path d="M211.943 77.3716C210.898 77.3788 212.87 83.5513 214.915 85.4746C216.96 87.3979 216.128 78.4443 215.719 77.6508C215.502 77.2304 214.751 77.3838 213.934 77.4258C213.21 77.463 212.434 77.3682 211.943 77.3716Z" fill="#FAF4ED"/>
<path d="M54.3906 76.9192C53.082 80.5058 60.4928 83.4841 72.8576 78.4859C85.2223 73.4877 86.8849 65.2358 83.1928 64.2183C81.5026 63.7524 75.2275 64.9919 69.1959 67.5016C62.0519 70.4742 55.1001 74.9745 54.3906 76.9192Z" fill="#49332D"/>
<path d="M64.2562 60.3879C49.0865 66.8843 52.0087 77.6227 54.2675 75.0785C66.0027 65.5802 70.7074 64.2009 80.8407 62.6967C83.9265 62.5392 79.4259 53.8915 64.2562 60.3879Z" fill="#49332D"/>
<path d="M194.448 48.3769C194.596 48.5483 194.843 48.6376 195.191 48.6448C195.525 48.6622 195.926 48.6569 196.392 48.629C196.848 48.5888 197.356 48.5474 197.916 48.5049C198.464 48.4726 199.018 48.4976 199.579 48.5798C200.13 48.6498 200.674 48.7986 201.211 49.0261C201.735 49.2639 202.214 49.6338 202.646 50.1358C202.846 50.3684 203.066 50.648 203.304 50.9746C203.545 51.2787 203.744 51.5963 203.901 51.9272C204.035 52.2561 204.093 52.5843 204.077 52.9116C204.037 53.237 203.855 53.5331 203.531 53.8C203.094 54.1593 202.59 54.354 202.019 54.3843C201.425 54.4127 200.806 54.3367 200.16 54.1566C199.504 53.9641 198.849 53.6981 198.194 53.3583C197.528 53.0064 196.9 52.6349 196.307 52.2439C195.714 51.8528 195.18 51.4667 194.702 51.0856C194.212 50.7147 193.821 50.409 193.529 50.1685L184.623 51.3757C184.224 51.4321 183.765 51.4437 183.246 51.4104C182.727 51.3772 182.212 51.2989 181.701 51.1756C181.177 51.0626 180.687 50.9014 180.229 50.692C179.762 50.4704 179.391 50.2004 179.116 49.8821C179.064 49.8209 178.981 49.7004 178.869 49.5208C178.747 49.3288 178.692 49.0917 178.704 48.8094C178.707 48.5148 178.823 48.1677 179.055 47.7681C179.276 47.3563 179.698 46.8938 180.322 46.3806C180.421 46.4458 180.533 46.4894 180.659 46.5115C180.772 46.5439 180.902 46.5835 181.049 46.6301C181.173 46.6747 181.312 46.7377 181.467 46.8191C181.6 46.8985 181.729 47.0117 181.856 47.1586C181.275 47.3014 180.893 47.5009 180.708 47.7572C180.501 48.0114 180.438 48.2724 180.519 48.5402C180.6 48.8079 180.793 49.0682 181.095 49.321C181.398 49.5737 181.757 49.7803 182.173 49.9407C182.575 50.1114 183.007 50.2165 183.467 50.2561C183.917 50.2834 184.34 50.2177 184.737 50.0591L192.763 48.7592L193.006 48.5591C192.936 47.7594 193.002 47.0566 193.205 46.4505C193.398 45.8321 193.654 45.276 193.975 44.7821C194.273 44.2862 194.596 43.8321 194.945 43.4199C195.293 43.0077 195.582 42.6131 195.812 42.2361C196.043 41.8365 196.176 41.4454 196.209 41.0628C196.244 40.6576 196.101 40.2203 195.782 39.7507C195.795 39.7404 195.814 39.725 195.839 39.7045C195.853 39.6717 195.866 39.6502 195.879 39.64C196.029 39.5168 196.194 39.4856 196.374 39.5465C196.556 39.5848 196.735 39.6682 196.909 39.7965C197.096 39.9146 197.27 40.0542 197.43 40.2154C197.579 40.3643 197.696 40.4877 197.78 40.5856C197.777 41.0275 197.662 41.4881 197.435 41.9674C197.198 42.4345 196.92 42.9038 196.601 43.3752C196.27 43.8569 195.933 44.3325 195.591 44.8019C195.226 45.2694 194.927 45.7142 194.693 46.1362C194.447 46.5686 194.285 46.9741 194.206 47.3527C194.127 47.7314 194.208 48.0728 194.448 48.3769ZM202.415 53.0239C202.564 52.9007 202.641 52.7542 202.644 52.5844C202.636 52.4024 202.588 52.2225 202.499 52.0448C202.41 51.8671 202.308 51.6996 202.194 51.5425C202.07 51.373 201.971 51.2455 201.897 51.1598C201.612 50.8292 201.209 50.5338 200.686 50.2735C200.151 50.0234 199.592 49.845 199.01 49.7383C198.417 49.6193 197.846 49.5872 197.296 49.642C196.724 49.6948 196.256 49.8701 195.894 50.1677C196.717 51.1227 197.661 51.8727 198.727 52.4179C199.77 52.961 200.957 53.1877 202.287 53.0979C202.299 53.0876 202.323 53.0784 202.359 53.0701C202.383 53.0495 202.402 53.0341 202.415 53.0239ZM192.8 41.2629C192.625 41.4066 192.459 41.5114 192.303 41.5774C192.134 41.6535 191.901 41.7299 191.605 41.8064C191.406 41.8234 191.037 41.8654 190.498 41.9324C189.948 41.9872 189.375 42.0513 188.777 42.1246C188.169 42.1857 187.601 42.2446 187.075 42.3014C186.525 42.3562 186.144 42.3972 185.933 42.4244C185.676 42.4476 185.515 42.4338 185.45 42.3828C185.385 42.3319 185.278 42.2207 185.131 42.0493C185.036 41.9391 184.942 41.8177 184.849 41.685C184.746 41.54 184.759 41.3825 184.89 41.2123C185.462 41.0347 186.068 40.9337 186.707 40.9094C187.324 40.883 187.941 40.8567 188.558 40.8303C189.164 40.7918 189.757 40.7123 190.335 40.592C190.901 40.4819 191.409 40.2421 191.858 39.8726C191.816 39.8236 191.759 39.745 191.687 39.6368C191.605 39.5164 191.517 39.3898 191.424 39.2571C191.331 39.1244 191.249 39.004 191.177 38.8957C191.095 38.7753 191.026 38.6957 190.971 38.657C190.896 38.5938 190.765 38.4919 190.58 38.3513C190.372 38.2087 190.159 38.06 189.94 37.9052C189.711 37.7381 189.493 37.5833 189.285 37.4407C189.077 37.2981 188.928 37.2003 188.84 37.1474C188.865 37.1269 188.909 37.0909 188.971 37.0396C189.011 36.9863 189.043 36.9494 189.068 36.9289C189.317 36.7236 189.623 36.6705 189.986 36.7697C190.338 36.8567 190.696 37.0121 191.059 37.2361C191.399 37.458 191.725 37.7128 192.037 38.0003C192.325 38.2859 192.543 38.5143 192.691 38.6858C192.849 38.8694 192.994 39.0746 193.125 39.3012C193.233 39.5259 193.301 39.7528 193.327 39.9818C193.354 40.2109 193.335 40.436 193.269 40.6571C193.181 40.8762 193.024 41.0782 192.8 41.2629ZM177.228 44.9413C177.091 44.7821 176.971 44.6301 176.868 44.4851C176.764 44.3402 176.695 44.1982 176.661 44.0592C176.626 43.9202 176.633 43.7791 176.68 43.6357C176.727 43.4924 176.838 43.3489 177.013 43.2052C177.088 43.1436 177.169 43.0769 177.256 43.005C177.343 42.9332 177.441 42.8736 177.55 42.8262C177.635 42.7768 177.73 42.751 177.835 42.7487C177.927 42.7566 178.02 42.8156 178.115 42.9258C178.263 43.0972 178.322 43.2893 178.292 43.5022C178.251 43.7027 178.171 43.8942 178.051 44.0767C177.918 44.2693 177.77 44.4436 177.606 44.5996C177.442 44.7555 177.316 44.8694 177.228 44.9413ZM189.11 36.2353C188.998 36.3277 188.91 36.3995 188.848 36.4508C188.786 36.5022 188.724 36.5422 188.664 36.571C188.58 36.5979 188.492 36.6186 188.397 36.6332C188.303 36.6478 188.18 36.6655 188.028 36.6864C187.769 36.7322 187.305 36.8 186.636 36.8899C185.967 36.9798 185.258 37.0719 184.508 37.1661C183.757 37.2604 183.048 37.3525 182.379 37.4424C181.7 37.52 181.225 37.5756 180.956 37.6091C180.933 37.6072 180.9 37.5817 180.858 37.5327C180.805 37.4715 180.768 37.4286 180.747 37.4042C180.726 37.3797 180.689 37.3368 180.637 37.2756C180.584 37.2144 180.559 37.1725 180.561 37.15C180.562 37.1275 180.573 37.0774 180.591 36.9996C180.599 36.9095 180.613 36.8144 180.633 36.7141C180.63 36.6118 180.638 36.5218 180.656 36.444C180.664 36.354 180.657 36.2967 180.636 36.2722C180.541 36.162 180.404 36.0765 180.223 36.0157C180.043 35.9548 179.857 35.8991 179.664 35.8485C179.448 35.796 179.245 35.7332 179.054 35.6601C178.863 35.587 178.704 35.477 178.578 35.3301C178.441 35.1709 178.352 34.9932 178.311 34.7969C178.269 34.6007 178.263 34.4074 178.291 34.2171C178.319 34.0267 178.38 33.8506 178.476 33.6888C178.56 33.5146 178.671 33.3711 178.808 33.2582C179.095 33.0221 179.407 32.8392 179.743 32.7093C180.068 32.5672 180.404 32.4374 180.75 32.3197C181.084 32.2124 181.419 32.0938 181.755 31.964C182.068 31.8321 182.362 31.6533 182.636 31.4275C182.911 31.2017 183.084 31.0068 183.156 30.843C183.216 30.6894 183.124 30.4718 182.882 30.1902C182.597 29.8596 182.278 29.5885 181.926 29.3768C181.562 29.1528 181.243 28.8817 180.969 28.5633C181.269 28.317 181.598 28.2035 181.955 28.2229C182.303 28.2301 182.655 28.3171 183.011 28.4838C183.345 28.6485 183.669 28.8633 183.982 29.1284C184.272 29.3914 184.523 29.6454 184.734 29.8902C185.135 30.3555 185.299 30.806 185.226 31.242C185.131 31.6759 184.859 32.0777 184.409 32.4472C184.11 32.6935 183.787 32.8755 183.441 32.9931C183.084 33.0985 182.728 33.1926 182.373 33.2754C182.007 33.3461 181.652 33.4289 181.308 33.524C180.963 33.6191 180.647 33.7847 180.36 34.0208C180.285 34.0824 180.196 34.1767 180.092 34.3039C179.989 34.431 179.995 34.5619 180.111 34.6966C180.459 35.1006 180.906 35.3601 181.453 35.4751C181.989 35.5779 182.573 35.5997 183.204 35.5406C183.825 35.4692 184.461 35.3539 185.112 35.1944C185.753 35.0228 186.358 34.8707 186.926 34.7381C187.483 34.5933 187.967 34.4988 188.376 34.4547C188.786 34.4105 189.07 34.4803 189.228 34.6639C189.449 34.921 189.547 35.1959 189.522 35.4885C189.497 35.7811 189.36 36.03 189.11 36.2353ZM177.732 21.3128C178.046 21.5779 178.238 21.9005 178.31 22.2808C178.358 22.6591 178.321 23.0243 178.198 23.3765C178.062 23.739 177.855 24.0557 177.577 24.3265C177.286 24.6076 176.953 24.7773 176.577 24.8357C175.401 24.8821 174.524 24.9767 173.943 25.1195C173.35 25.2726 172.999 25.4465 172.889 25.6412C172.757 25.8338 172.82 26.0433 173.079 26.2696C173.314 26.494 173.685 26.7015 174.19 26.8924C174.683 27.0934 175.265 27.2738 175.935 27.4335C176.595 27.5809 177.265 27.6781 177.945 27.7253C178.625 27.7724 179.287 27.7612 179.931 27.6919C180.552 27.6205 181.087 27.4624 181.537 27.2177C181.718 27.2786 181.87 27.3313 181.993 27.3759C182.105 27.4308 182.208 27.5134 182.303 27.6236C182.461 27.8072 182.493 27.9687 182.4 28.1081C182.307 28.2475 182.192 28.3736 182.054 28.4865C181.742 28.7431 181.345 28.9131 180.862 28.9963C180.357 29.0776 179.855 29.1138 179.357 29.105C178.836 29.0943 178.357 29.0701 177.92 29.0325C177.47 29.0052 177.128 29.0041 176.894 29.0293C176.119 29.1441 175.306 29.2897 174.456 29.466C173.593 29.6526 172.724 29.8444 171.849 30.0413C170.962 30.2484 170.082 30.4392 169.208 30.6135C168.312 30.7859 167.437 30.9204 166.582 31.017C166.429 31.0379 166.319 31.0454 166.25 31.0395C166.17 31.0213 166.093 30.9693 166.02 30.8836C165.935 30.7857 165.891 30.6968 165.886 30.6171C165.881 30.5373 165.908 30.4319 165.965 30.3008C166.015 30.2597 166.107 30.2053 166.24 30.1374C166.363 30.0572 166.504 29.9729 166.662 29.8845C166.797 29.7941 166.937 29.7211 167.081 29.6654C167.214 29.5976 167.305 29.5543 167.353 29.5358C167.566 29.4861 167.934 29.3929 168.456 29.2564C168.978 29.1199 169.54 28.9812 170.144 28.8403C170.737 28.6872 171.318 28.5331 171.888 28.3781C172.446 28.2332 172.861 28.1216 173.135 28.043C172.852 27.962 172.616 27.8737 172.427 27.7781C172.226 27.6928 172.054 27.5931 171.913 27.4789C171.75 27.3628 171.604 27.2313 171.478 27.0844C171.328 26.9355 171.174 26.7692 171.016 26.5856C170.749 26.0524 170.67 25.6261 170.779 25.3067C170.877 24.975 171.102 24.7166 171.454 24.5315C171.783 24.3444 172.202 24.1989 172.709 24.0952C173.217 23.9914 173.741 23.8948 174.282 23.8052C174.8 23.7137 175.296 23.609 175.77 23.491C176.232 23.3833 176.595 23.2104 176.859 22.9723C176.971 22.88 177.031 22.7888 177.039 22.6987C177.047 22.6087 177.031 22.5167 176.993 22.4227C176.955 22.3287 176.899 22.2389 176.825 22.1532C176.751 22.0675 176.683 21.9879 176.619 21.9144C176.398 21.6573 176.15 21.4432 175.874 21.2722C175.576 21.0992 175.277 20.9375 174.977 20.7869C174.677 20.6364 174.389 20.4757 174.114 20.3046C173.816 20.1316 173.556 19.9166 173.335 19.6595C173.572 19.4645 173.897 19.396 174.309 19.4541C174.721 19.5122 175.151 19.6399 175.598 19.837C176.022 20.0321 176.437 20.2662 176.842 20.5391C177.235 20.8223 177.532 21.0802 177.732 21.3128Z" fill="#FAF4ED"/>
<path d="M208.794 32.7479C208.75 32.6979 208.733 32.6371 208.742 32.5655L208.828 31.878C209.393 31.8859 209.937 32.0121 210.46 32.2568C210.981 32.4983 211.482 32.8974 211.964 33.4541C212.381 33.9357 212.675 34.4429 212.846 34.9759C213.015 35.5114 213.066 36.0442 212.999 36.5741C212.93 37.1066 212.745 37.6264 212.446 38.1335C212.146 38.6405 211.737 39.1063 211.219 39.5309C210.7 39.9555 210.156 40.2649 209.586 40.4592C209.016 40.6536 208.451 40.734 207.892 40.7005C207.33 40.6639 206.789 40.5133 206.27 40.2488C205.748 39.9869 205.276 39.612 204.854 39.1242C204.44 38.6457 204.153 38.1593 203.993 37.665C203.833 37.1707 203.767 36.6743 203.795 36.1758L204.482 36.1262C204.53 36.1187 204.579 36.1215 204.629 36.1344C204.672 36.1468 204.716 36.178 204.759 36.2281C204.808 36.2844 204.837 36.3781 204.847 36.5092C204.853 36.6429 204.875 36.8069 204.911 37.0011C204.948 37.1954 205.022 37.4159 205.131 37.6627C205.238 37.9121 205.416 38.1807 205.665 38.4684C205.965 38.8155 206.302 39.0819 206.676 39.2674C207.047 39.4555 207.439 39.5586 207.854 39.5768C208.267 39.5919 208.691 39.5197 209.127 39.3603C209.563 39.2008 209.993 38.9481 210.415 38.6021C210.844 38.2509 211.175 37.8783 211.408 37.4843C211.639 37.0871 211.781 36.6897 211.836 36.292C211.885 35.8938 211.849 35.5041 211.727 35.1231C211.602 34.7389 211.398 34.3826 211.114 34.0543C210.94 33.8541 210.774 33.6835 210.613 33.5423C210.447 33.4007 210.28 33.2836 210.112 33.1911C209.942 33.0954 209.768 33.0212 209.591 32.9683C209.408 32.915 209.213 32.8751 209.004 32.8485C208.91 32.8346 208.84 32.8011 208.794 32.7479ZM202.47 27.6787L200.585 31.026C200.529 31.1255 200.461 31.2369 200.382 31.3604C200.3 31.4866 200.21 31.6164 200.112 31.7499C200.428 31.6032 200.702 31.4936 200.935 31.4208L204.642 30.1883L202.47 27.6787ZM203.384 23.6922L203.993 24.3958C204.063 24.4771 204.099 24.5598 204.101 24.6439C204.103 24.728 204.082 24.8088 204.04 24.8862L202.923 26.875L205.534 29.8913L207.739 29.1596C207.812 29.1312 207.895 29.1253 207.986 29.1417C208.076 29.1582 208.156 29.2055 208.223 29.2837L208.832 29.9873L199.627 32.9329L198.831 32.0135L203.384 23.6922ZM194.949 26.0306L197.354 24.061L194.963 21.2981L195.721 20.677L198.112 23.4399L201.07 21.0183L201.857 21.9283L194.978 27.5617L191.393 23.4197L192.151 22.7985L194.949 26.0306ZM192.157 12.2184L192.92 11.6019L196.505 15.744L189.625 21.3775L186.04 17.2354L186.799 16.6143L189.596 19.8463L191.881 17.975L189.616 15.3575L190.346 14.7599L192.611 17.3775L194.959 15.4551L192.157 12.2184Z" fill="#FAF4ED"/>
<path d="M277.747 48.4452C277.715 48.4075 277.703 48.3617 277.709 48.3077L277.774 47.7894C278.195 47.7951 278.601 47.89 278.991 48.0742C279.379 48.256 279.752 48.5566 280.111 48.976C280.421 49.3389 280.64 49.7211 280.767 50.1228C280.892 50.5265 280.93 50.928 280.88 51.3276C280.827 51.729 280.689 52.121 280.465 52.5034C280.242 52.8857 279.936 53.2371 279.549 53.5574C279.162 53.8777 278.756 54.1112 278.331 54.258C277.905 54.4048 277.484 54.4656 277.067 54.4407C276.648 54.4133 276.245 54.3001 275.859 54.1009C275.47 53.9038 275.118 53.6214 274.804 53.2538C274.495 52.8933 274.282 52.5268 274.163 52.1542C274.044 51.7817 273.996 51.4075 274.017 51.0317L274.529 50.994C274.565 50.9883 274.602 50.9904 274.639 51.0001C274.671 51.0094 274.704 51.033 274.736 51.0707C274.772 51.1131 274.794 51.1837 274.801 51.2825C274.805 51.3833 274.821 51.5069 274.849 51.6533C274.876 51.7998 274.93 51.966 275.012 52.152C275.091 52.34 275.223 52.5423 275.409 52.7591C275.632 53.0206 275.883 53.2212 276.162 53.3609C276.438 53.5025 276.731 53.5801 277.04 53.5936C277.348 53.6048 277.664 53.5502 277.99 53.4297C278.315 53.3093 278.635 53.1186 278.951 52.8576C279.271 52.5927 279.518 52.3116 279.692 52.0145C279.864 51.715 279.971 51.4153 280.013 51.1155C280.05 50.8152 280.023 50.5215 279.932 50.2343C279.84 49.9448 279.688 49.6763 279.476 49.4289C279.347 49.2781 279.223 49.1496 279.103 49.0432C278.979 48.9365 278.855 48.8483 278.73 48.7787C278.603 48.7066 278.474 48.6507 278.342 48.611C278.206 48.5709 278.06 48.5409 277.904 48.5209C277.834 48.5105 277.782 48.4853 277.747 48.4452ZM274.443 45.7262C274.7 46.0081 274.936 46.2357 275.149 46.4091C275.358 46.5821 275.548 46.7086 275.719 46.7888C275.887 46.8666 276.037 46.9013 276.169 46.893C276.299 46.8823 276.414 46.8355 276.514 46.7524C276.609 46.6733 276.679 46.5898 276.722 46.5018C276.765 46.4139 276.787 46.3252 276.788 46.2358C276.785 46.146 276.764 46.0569 276.725 45.9684C276.681 45.8795 276.624 45.7939 276.554 45.7114C276.459 45.6007 276.362 45.5082 276.262 45.4341C276.159 45.362 276.052 45.3037 275.941 45.2592C275.827 45.2123 275.709 45.1771 275.587 45.1535C275.463 45.1275 275.332 45.1108 275.195 45.1034L274.443 45.7262ZM274.697 48.9863C274.335 48.9485 274.008 48.8549 273.717 48.7054C273.426 48.556 273.161 48.3422 272.923 48.0642C272.752 47.8639 272.633 47.6583 272.567 47.4475C272.501 47.2366 272.483 47.0287 272.511 46.8238C272.54 46.6189 272.616 46.4192 272.739 46.2246C272.863 46.0301 273.026 45.8487 273.229 45.6807L275.551 43.7588L275.79 44.038C275.842 44.0993 275.873 44.1543 275.882 44.2031C275.889 44.2539 275.87 44.3134 275.827 44.3817L275.543 44.7371C275.712 44.7582 275.869 44.7849 276.015 44.8171C276.159 44.8512 276.297 44.898 276.429 44.9574C276.559 45.0188 276.684 45.0962 276.805 45.1895C276.926 45.2785 277.045 45.3913 277.162 45.528C277.281 45.667 277.373 45.8136 277.44 45.9677C277.504 46.1239 277.536 46.2805 277.536 46.4376C277.534 46.5924 277.496 46.7463 277.423 46.8994C277.345 47.0521 277.224 47.1966 277.059 47.3331C276.916 47.4517 276.745 47.5265 276.548 47.5575C276.347 47.5905 276.121 47.5623 275.869 47.4729C275.618 47.3836 275.339 47.2254 275.035 46.9984C274.728 46.7734 274.396 46.4611 274.038 46.0613L273.755 46.2956C273.473 46.529 273.312 46.765 273.271 47.0038C273.228 47.2446 273.305 47.4804 273.503 47.7113C273.636 47.8668 273.768 47.9808 273.899 48.0532C274.026 48.1253 274.148 48.1794 274.265 48.2156C274.377 48.2515 274.478 48.2809 274.566 48.3038C274.651 48.3264 274.717 48.3647 274.763 48.4189C274.799 48.4613 274.82 48.5068 274.824 48.5552C274.827 48.6056 274.82 48.6552 274.805 48.7041L274.697 48.9863ZM274.378 42.3869L271.292 44.9405L271.584 45.3749C271.615 45.4342 271.632 45.4903 271.636 45.543C271.636 45.5954 271.612 45.6414 271.564 45.6809L271.303 45.8974L270.819 45.332L270.468 45.6226C270.26 45.7946 270.052 45.9186 269.844 45.9945C269.631 46.0701 269.424 46.1003 269.224 46.0852C269.019 46.0698 268.823 46.0104 268.637 45.907C268.45 45.8037 268.277 45.6578 268.115 45.4693C267.978 45.3091 267.876 45.142 267.809 44.9682L268.14 44.7184C268.202 44.6756 268.26 44.6817 268.315 44.7367C268.368 44.7893 268.436 44.8639 268.519 44.9605C268.611 45.0688 268.71 45.1559 268.816 45.2218C268.919 45.2852 269.03 45.322 269.149 45.3323C269.268 45.3425 269.395 45.3218 269.53 45.2701C269.663 45.2161 269.808 45.1249 269.963 44.9963L270.296 44.7205L269.414 43.6885L269.876 43.3059L270.74 44.3167L273.837 41.7542L274.378 42.3869ZM268.096 39.4574C267.948 39.58 267.831 39.7129 267.746 39.8562C267.656 39.9991 267.601 40.1471 267.581 40.3004C267.557 40.4533 267.569 40.606 267.618 40.7587C267.664 40.9133 267.749 41.0625 267.872 41.2062C268.13 41.5078 268.424 41.6728 268.754 41.7012C269.08 41.7293 269.419 41.634 269.771 41.4154L268.096 39.4574ZM269.363 37.5397C269.525 37.5384 269.688 37.5623 269.853 37.6113C270.015 37.6624 270.172 37.7315 270.324 37.8189C270.474 37.9038 270.616 38.0034 270.751 38.1175C270.887 38.2297 271.011 38.3506 271.122 38.4802C271.334 38.7276 271.487 38.9907 271.583 39.2696C271.674 39.5481 271.704 39.8312 271.673 40.1188C271.637 40.406 271.535 40.6919 271.366 40.9764C271.197 41.2609 270.956 41.5327 270.643 41.7917C270.39 42.0013 270.121 42.1594 269.837 42.2659C269.551 42.37 269.266 42.4165 268.983 42.4052C268.698 42.3959 268.421 42.3252 268.153 42.193C267.883 42.0628 267.636 41.868 267.415 41.6089C267.231 41.3945 267.099 41.1659 267.018 40.9232C266.933 40.6801 266.903 40.4352 266.928 40.1886C266.95 39.9416 267.03 39.6963 267.168 39.4529C267.304 39.2114 267.502 38.9839 267.76 38.7703C267.86 38.6873 267.936 38.6425 267.987 38.6361C268.039 38.6296 268.09 38.6558 268.14 38.7147L270.187 41.1074C270.41 40.9105 270.583 40.7148 270.706 40.5202C270.828 40.3233 270.903 40.1279 270.933 39.934C270.961 39.7421 270.945 39.5541 270.886 39.37C270.824 39.1879 270.72 39.012 270.575 38.8424C270.44 38.6845 270.306 38.5638 270.174 38.4804C270.037 38.3966 269.911 38.3312 269.798 38.2844C269.684 38.2375 269.587 38.2018 269.504 38.1773C269.418 38.1523 269.357 38.1199 269.323 38.0798C269.279 38.028 269.265 37.9711 269.281 37.9092L269.363 37.5397ZM265.018 41.8119L266.647 41.8702C266.711 41.8735 266.765 41.8848 266.81 41.9039C266.851 41.9227 266.892 41.9568 266.935 42.0063L267.255 42.3809L265.94 42.5756C265.857 42.5881 265.788 42.5854 265.732 42.5674C265.671 42.5491 265.609 42.5023 265.544 42.4269L265.018 41.8119ZM265.798 34.1005C265.856 33.8546 265.86 33.6366 265.807 33.4465C265.755 33.2565 265.656 33.0767 265.511 32.907C265.225 32.5724 264.885 32.4155 264.49 32.4361C264.096 32.4567 263.675 32.6519 263.229 33.0216C262.992 33.2174 262.807 33.4067 262.674 33.5895C262.538 33.7699 262.45 33.9435 262.409 34.1102C262.366 34.2789 262.367 34.4406 262.414 34.5952C262.461 34.7498 262.545 34.899 262.668 35.0427C262.844 35.2477 263.045 35.3884 263.274 35.4648C263.501 35.5389 263.756 35.5685 264.042 35.5538L265.798 34.1005ZM263.632 35.9474C263.314 35.9528 263.013 35.904 262.729 35.801C262.445 35.698 262.195 35.5193 261.977 35.2648C261.8 35.0575 261.68 34.8365 261.618 34.602C261.554 34.3695 261.55 34.1291 261.607 33.8808C261.662 33.6344 261.778 33.3836 261.955 33.1281C262.132 32.8727 262.371 32.6205 262.672 32.3713C262.94 32.1499 263.22 31.9786 263.512 31.8575C263.802 31.7384 264.089 31.6758 264.373 31.6697C264.653 31.6632 264.925 31.7161 265.188 31.8282C265.447 31.94 265.679 32.116 265.885 32.3564C266.072 32.5755 266.196 32.7946 266.257 33.0138C266.314 33.2326 266.327 33.4574 266.296 33.6883L267.901 32.3596L268.442 32.9922L263.583 37.0139L263.26 36.6357C263.183 36.5462 263.18 36.4542 263.25 36.3599L263.632 35.9474ZM260.329 29.2237C260.587 29.5056 260.822 29.7333 261.036 29.9066C261.245 30.0796 261.435 30.2062 261.605 30.2863C261.774 30.3641 261.924 30.3989 262.055 30.3905C262.185 30.3799 262.3 30.333 262.4 30.25C262.496 30.1709 262.565 30.0873 262.608 29.9994C262.651 29.9114 262.673 29.8227 262.675 29.7333C262.671 29.6435 262.65 29.5544 262.611 29.4659C262.568 29.3771 262.511 29.2914 262.44 29.2089C262.346 29.0982 262.248 29.0058 262.148 28.9317C262.046 28.8596 261.939 28.8012 261.827 28.7567C261.714 28.7098 261.596 28.6746 261.473 28.651C261.349 28.625 261.219 28.6083 261.082 28.6009L260.329 29.2237ZM260.584 32.4838C260.221 32.446 259.894 32.3524 259.603 32.203C259.312 32.0535 259.048 31.8398 258.81 31.5617C258.639 31.3615 258.52 31.1559 258.454 30.945C258.388 30.7341 258.369 30.5263 258.398 30.3214C258.427 30.1165 258.503 29.9168 258.626 29.7222C258.749 29.5276 258.912 29.3463 259.115 29.1782L261.437 27.2564L261.676 27.5356C261.729 27.5968 261.759 27.6519 261.768 27.7007C261.775 27.7515 261.757 27.811 261.713 27.8793L261.43 28.2347C261.599 28.2558 261.756 28.2824 261.902 28.3146C262.045 28.3488 262.183 28.3956 262.316 28.455C262.446 28.5164 262.571 28.5937 262.692 28.6871C262.813 28.776 262.931 28.8889 263.048 29.0255C263.167 29.1645 263.26 29.3111 263.327 29.4653C263.391 29.6214 263.423 29.7781 263.422 29.9352C263.42 30.09 263.382 30.2439 263.309 30.3969C263.232 30.5496 263.111 30.6942 262.946 30.8306C262.803 30.9492 262.632 31.024 262.434 31.055C262.234 31.088 262.008 31.0598 261.756 30.9705C261.504 30.8812 261.226 30.723 260.922 30.496C260.615 30.271 260.283 29.9586 259.924 29.5589L259.641 29.7932C259.359 30.0265 259.198 30.2626 259.158 30.5014C259.115 30.7421 259.192 30.978 259.389 31.2089C259.522 31.3644 259.655 31.4783 259.786 31.5508C259.913 31.6228 260.034 31.6769 260.151 31.7132C260.263 31.749 260.364 31.7784 260.453 31.8013C260.538 31.8239 260.603 31.8623 260.649 31.9165C260.686 31.9589 260.706 32.0043 260.711 32.0527C260.713 32.1031 260.707 32.1528 260.691 32.2017L260.584 32.4838ZM257.003 27.8675C256.658 27.96 256.345 27.9812 256.066 27.9309C255.784 27.8826 255.541 27.7395 255.337 27.5015C255.273 27.4261 255.22 27.3474 255.178 27.2652C255.134 27.1807 255.107 27.0965 255.097 27.0126L255.613 26.6641C255.684 26.6288 255.745 26.6395 255.793 26.696C255.821 26.729 255.855 26.7832 255.895 26.8587C255.935 26.9342 255.99 27.012 256.058 27.0921C256.155 27.2052 256.258 27.2927 256.368 27.3545C256.476 27.414 256.594 27.4514 256.721 27.4667C256.844 27.4817 256.979 27.4769 257.125 27.4524C257.267 27.4275 257.419 27.386 257.582 27.328L259.875 25.4298L260.416 26.0625L256.786 29.0669L256.478 28.7064C256.42 28.638 256.392 28.58 256.397 28.5324C256.401 28.4847 256.431 28.4295 256.487 28.3666L257.003 27.8675ZM254.767 22.7194C255.024 23.0013 255.259 23.2289 255.473 23.4023C255.682 23.5753 255.872 23.7018 256.042 23.782C256.211 23.8598 256.361 23.8945 256.493 23.8862C256.622 23.8755 256.737 23.8287 256.838 23.7456C256.933 23.6665 257.002 23.583 257.046 23.495C257.089 23.4071 257.111 23.3184 257.112 23.229C257.108 23.1392 257.087 23.0501 257.048 22.9616C257.005 22.8727 256.948 22.7871 256.877 22.7046C256.783 22.5939 256.685 22.5014 256.585 22.4273C256.483 22.3552 256.376 22.2969 256.264 22.2524C256.151 22.2055 256.033 22.1703 255.911 22.1467C255.787 22.1207 255.656 22.104 255.519 22.0966L254.767 22.7194ZM255.021 25.9795C254.658 25.9417 254.331 25.8481 254.04 25.6986C253.749 25.5492 253.485 25.3354 253.247 25.0574C253.076 24.8571 252.957 24.6515 252.891 24.4407C252.825 24.2298 252.806 24.0219 252.835 23.817C252.864 23.6121 252.94 23.4124 253.063 23.2178C253.186 23.0233 253.35 22.8419 253.553 22.6739L255.875 20.752L256.113 21.0312C256.166 21.0925 256.197 21.1475 256.206 21.1963C256.212 21.2471 256.194 21.3066 256.15 21.3749L255.867 21.7303C256.036 21.7514 256.193 21.7781 256.339 21.8103C256.483 21.8444 256.62 21.8912 256.753 21.9506C256.883 22.012 257.008 22.0894 257.129 22.1827C257.25 22.2717 257.369 22.3845 257.486 22.5212C257.605 22.6602 257.697 22.8068 257.764 22.9609C257.828 23.1171 257.86 23.2737 257.86 23.4309C257.857 23.5856 257.82 23.7396 257.747 23.8926C257.669 24.0453 257.548 24.1898 257.383 24.3263C257.24 24.4449 257.069 24.5197 256.871 24.5507C256.671 24.5837 256.445 24.5555 256.193 24.4662C255.941 24.3768 255.663 24.2186 255.359 23.9916C255.052 23.7666 254.72 23.4543 254.362 23.0545L254.079 23.2888C253.797 23.5222 253.635 23.7582 253.595 23.997C253.552 24.2378 253.629 24.4736 253.827 24.7045C253.96 24.86 254.092 24.974 254.223 25.0464C254.35 25.1185 254.472 25.1726 254.588 25.2088C254.701 25.2447 254.801 25.2741 254.89 25.297C254.975 25.3196 255.04 25.3579 255.087 25.4121C255.123 25.4545 255.143 25.5 255.148 25.5484C255.15 25.5988 255.144 25.6484 255.129 25.6973L255.021 25.9795ZM252.223 16.3673C252.464 16.6501 252.571 16.9343 252.542 17.2199C252.511 17.5032 252.345 17.7694 252.044 18.0185L249.822 19.8573L250.191 20.2885C250.223 20.3262 250.239 20.3669 250.24 20.4106C250.238 20.4563 250.213 20.4989 250.166 20.5385L249.911 20.749L249.334 20.2246L248.089 21.008C248.047 21.0306 248.005 21.039 247.963 21.0333C247.917 21.0271 247.877 21.004 247.843 20.964L247.571 20.6459L248.822 19.6108L247.936 18.5753L248.398 18.1927L249.284 19.2282L251.463 17.425C251.615 17.2984 251.698 17.168 251.709 17.0337C251.721 16.8993 251.677 16.7744 251.579 16.659C251.522 16.593 251.465 16.5434 251.408 16.5101C251.347 16.4764 251.29 16.4508 251.239 16.4333C251.187 16.4157 251.143 16.4021 251.106 16.3924C251.064 16.3823 251.036 16.3678 251.02 16.349C250.991 16.316 250.987 16.2697 251.005 16.2102L251.152 15.7743C251.348 15.7977 251.541 15.8612 251.732 15.9649C251.92 16.0706 252.084 16.2048 252.223 16.3673ZM245.777 16.3084C245.553 16.0469 245.396 15.7747 245.305 15.4918C245.214 15.209 245.186 14.9261 245.222 14.6432C245.257 14.3603 245.358 14.0841 245.523 13.8145C245.684 13.5446 245.906 13.292 246.191 13.0567C246.477 12.8195 246.769 12.646 247.067 12.5363C247.363 12.4242 247.656 12.3752 247.945 12.3892C248.235 12.4031 248.513 12.4784 248.781 12.615C249.046 12.7535 249.291 12.9535 249.514 13.215C249.74 13.4789 249.901 13.7525 249.996 14.0357C250.087 14.3186 250.115 14.6015 250.079 14.8844C250.044 15.1672 249.946 15.4436 249.785 15.7136C249.622 15.9811 249.397 16.2336 249.11 16.4708C248.826 16.7061 248.536 16.8798 248.24 16.9918C247.94 17.1035 247.645 17.1524 247.356 17.1384C247.066 17.1244 246.788 17.0491 246.52 16.9126C246.25 16.7737 246.003 16.5723 245.777 16.3084ZM249.016 13.6273C248.714 13.2739 248.369 13.1088 247.981 13.1322C247.591 13.1575 247.18 13.3482 246.75 13.7041C246.318 14.0619 246.056 14.4279 245.963 14.802C245.871 15.176 245.976 15.5398 246.279 15.8932C246.432 16.0723 246.597 16.2032 246.774 16.2861C246.949 16.3667 247.133 16.4033 247.327 16.3959C247.518 16.3862 247.719 16.3326 247.93 16.235C248.135 16.137 248.346 15.999 248.561 15.8211C248.991 15.4652 249.252 15.1002 249.344 14.7262C249.432 14.3517 249.323 13.9854 249.016 13.6273ZM242.362 10.4765C242.303 10.7268 242.3 10.946 242.355 11.134C242.408 11.3241 242.506 11.5039 242.651 11.6736C242.936 12.0058 243.275 12.1616 243.669 12.141C244.064 12.1203 244.484 11.9251 244.931 11.5554C245.168 11.3597 245.353 11.1716 245.489 10.9911C245.622 10.8127 245.71 10.6391 245.753 10.4704C245.794 10.3036 245.792 10.143 245.745 9.98836C245.698 9.83374 245.614 9.68457 245.491 9.54084C245.314 9.3335 245.112 9.19279 244.885 9.11873C244.656 9.04231 244.4 9.01148 244.114 9.02622L242.362 10.4765ZM239.312 11.9265L244.59 7.55779L244.911 7.93243C244.987 8.02196 244.992 8.11509 244.923 8.21181L244.531 8.63315C244.848 8.63208 245.148 8.68187 245.43 8.78253C245.712 8.88318 245.963 9.06192 246.182 9.31875C246.357 9.52374 246.477 9.7425 246.541 9.97503C246.603 10.2095 246.607 10.45 246.552 10.6963C246.498 10.9426 246.382 11.1935 246.205 11.4489C246.027 11.7043 245.788 11.9566 245.487 12.2057C245.22 12.4272 244.941 12.5974 244.651 12.7166C244.359 12.8377 244.072 12.9025 243.789 12.9109C243.507 12.9193 243.236 12.8677 242.977 12.7559C242.714 12.6438 242.48 12.4675 242.274 12.2272C242.087 12.0081 241.965 11.7891 241.908 11.5703C241.847 11.3512 241.831 11.125 241.86 10.8917L239.85 12.5556L239.312 11.9265ZM238.561 7.87126C238.337 7.60972 238.18 7.33753 238.089 7.05467C237.998 6.77181 237.971 6.48894 238.006 6.20605C238.042 5.92316 238.142 5.64694 238.307 5.37739C238.468 5.10747 238.69 4.85486 238.975 4.61957C239.261 4.38231 239.554 4.20882 239.852 4.09912C240.147 3.98706 240.44 3.93802 240.729 3.95201C241.019 3.966 241.297 4.04127 241.565 4.17781C241.83 4.31633 242.075 4.51636 242.299 4.77789C242.524 5.04178 242.685 5.31535 242.78 5.59858C242.871 5.88144 242.899 6.16432 242.863 6.44721C242.828 6.7301 242.73 7.0065 242.569 7.27643C242.406 7.54399 242.181 7.79641 241.895 8.03368C241.61 8.26897 241.32 8.44264 241.024 8.5547C240.724 8.66638 240.429 8.71523 240.14 8.70124C239.851 8.68725 239.572 8.61199 239.304 8.47544C239.035 8.33654 238.787 8.13515 238.561 7.87126ZM241.801 5.19014C241.498 4.83672 241.153 4.67169 240.765 4.69505C240.375 4.72039 239.965 4.91101 239.535 5.26691C239.102 5.62479 238.84 5.99076 238.748 6.36482C238.656 6.73887 238.761 7.10261 239.063 7.45604C239.216 7.63511 239.381 7.76609 239.558 7.84899C239.733 7.92952 239.917 7.96612 240.111 7.95877C240.303 7.94906 240.503 7.89542 240.714 7.79782C240.92 7.69985 241.13 7.56189 241.345 7.38394C241.775 7.02804 242.036 6.66306 242.128 6.28901C242.216 5.91457 242.107 5.54828 241.801 5.19014ZM235.093 2.50624C235.169 2.49102 235.233 2.51286 235.283 2.57176C235.314 2.6071 235.335 2.65803 235.347 2.72455C235.359 2.79107 235.377 2.87016 235.403 2.96184C235.424 3.05314 235.459 3.15443 235.51 3.26571C235.558 3.37898 235.634 3.49687 235.739 3.61939C235.829 3.72542 235.925 3.80898 236.027 3.87007C236.125 3.93315 236.225 3.97554 236.325 3.99726C236.423 4.01662 236.519 4.0161 236.611 3.9957C236.7 3.97492 236.781 3.93389 236.855 3.87259C236.948 3.79548 237.004 3.7053 237.021 3.60206C237.037 3.49646 237.03 3.38129 237.001 3.25654C236.972 3.1318 236.928 2.99922 236.869 2.85882C236.808 2.7204 236.748 2.57666 236.69 2.42759C236.628 2.27815 236.573 2.12828 236.526 1.978C236.479 1.82771 236.454 1.67932 236.451 1.53283C236.448 1.38633 236.477 1.24367 236.538 1.10484C236.594 0.965623 236.695 0.835711 236.841 0.715101C237.008 0.576695 237.189 0.477628 237.383 0.417899C237.574 0.360147 237.771 0.345499 237.975 0.373954C238.177 0.404386 238.379 0.478531 238.582 0.596389C238.785 0.714247 238.98 0.882739 239.167 1.10186C239.381 1.35162 239.533 1.61142 239.626 1.88128C239.715 2.15312 239.756 2.4131 239.748 2.66124L239.377 2.71448C239.33 2.72134 239.287 2.71872 239.248 2.70665C239.209 2.69457 239.173 2.6685 239.138 2.62845C239.102 2.58604 239.081 2.52743 239.074 2.45262C239.067 2.37782 239.056 2.29062 239.04 2.19104C239.022 2.0891 238.988 1.97598 238.939 1.8517C238.89 1.72741 238.804 1.59341 238.681 1.44968C238.576 1.32716 238.469 1.23281 238.359 1.16662C238.247 1.10241 238.138 1.06241 238.03 1.04663C237.923 1.03084 237.821 1.03847 237.726 1.06951C237.628 1.0982 237.538 1.14616 237.457 1.21338C237.357 1.29643 237.297 1.39174 237.279 1.49931C237.257 1.60651 237.26 1.72248 237.289 1.84723C237.316 1.97395 237.361 2.1077 237.424 2.24848C237.483 2.38888 237.544 2.5338 237.606 2.68325C237.667 2.83033 237.722 2.9802 237.771 3.13284C237.815 3.2851 237.838 3.43547 237.838 3.58394C237.839 3.73241 237.808 3.87823 237.747 4.0214C237.682 4.16419 237.571 4.29984 237.416 4.42836C237.277 4.54304 237.121 4.6245 236.946 4.67275C236.768 4.72297 236.585 4.73343 236.397 4.70414C236.207 4.67682 236.015 4.60795 235.823 4.49754C235.63 4.38713 235.448 4.23061 235.274 4.02798C235.073 3.79236 234.931 3.54985 234.848 3.30044C234.761 3.05065 234.724 2.80306 234.739 2.55765L235.093 2.50624ZM230.578 -3.29542C230.522 -3.05578 230.521 -2.83976 230.575 -2.64737C230.627 -2.45299 230.726 -2.27098 230.871 -2.10133C231.155 -1.76911 231.494 -1.61332 231.888 -1.63395C232.283 -1.65458 232.703 -1.84976 233.15 -2.2195C233.387 -2.41525 233.573 -2.60334 233.708 -2.78378C233.841 -2.96224 233.929 -3.13582 233.973 -3.30453C234.014 -3.47126 234.011 -3.63193 233.964 -3.78655C233.918 -3.94117 233.833 -4.09034 233.71 -4.23406C233.533 -4.44141 233.331 -4.58211 233.104 -4.65617C232.876 -4.73259 232.619 -4.76343 232.334 -4.74868L230.578 -3.29542ZM229.18 -3.21272L234.039 -7.23439L234.577 -6.60529L232.807 -5.14017C233.11 -5.13805 233.4 -5.08586 233.675 -4.9836C233.948 -4.87937 234.19 -4.70356 234.401 -4.45616C234.577 -4.25117 234.696 -4.03241 234.761 -3.79987C234.823 -3.56536 234.826 -3.32494 234.772 -3.07861C234.717 -2.83228 234.601 -2.58141 234.424 -2.326C234.247 -2.0706 234.007 -1.81833 233.706 -1.5692C233.439 -1.34775 233.16 -1.17746 232.87 -1.05833C232.578 -0.937226 232.291 -0.872455 232.008 -0.864018C231.726 -0.855581 231.455 -0.907243 231.197 -1.019C230.933 -1.13115 230.699 -1.30738 230.493 -1.54771C230.294 -1.78097 230.166 -2.01349 230.111 -2.24527C230.056 -2.47705 230.05 -2.71766 230.093 -2.9671L229.778 -2.77818C229.669 -2.72859 229.577 -2.74856 229.5 -2.83809L229.18 -3.21272ZM225.61 -7.38601L229.24 -10.3904L229.561 -10.0158C229.637 -9.92623 229.642 -9.8331 229.573 -9.73639L229.225 -9.36363C229.532 -9.35246 229.823 -9.29476 230.095 -9.19053C230.366 -9.08432 230.608 -8.90634 230.821 -8.65658C230.988 -8.46102 231.104 -8.26115 231.169 -8.05697C231.229 -7.85316 231.242 -7.65117 231.21 -7.451C231.177 -7.25082 231.098 -7.05462 230.973 -6.8624C230.845 -6.67254 230.679 -6.49259 230.473 -6.32255L228.159 -4.40662L227.621 -5.03572L229.935 -6.95165C230.21 -7.17903 230.37 -7.41626 230.416 -7.66335C230.46 -7.91279 230.373 -8.16475 230.155 -8.41921C229.996 -8.60535 229.804 -8.74195 229.578 -8.82902C229.348 -8.91646 229.096 -8.96326 228.822 -8.96942L226.149 -6.75691L225.61 -7.38601ZM223.926 -12.1898C223.777 -12.0672 223.661 -11.9343 223.575 -11.7911C223.485 -11.6482 223.43 -11.5001 223.41 -11.3469C223.386 -11.194 223.398 -11.0412 223.447 -10.8886C223.494 -10.7339 223.579 -10.5848 223.701 -10.441C223.959 -10.1395 224.254 -9.97445 224.584 -9.94603C224.91 -9.91799 225.248 -10.0133 225.6 -10.2318L223.926 -12.1898ZM225.192 -14.1075C225.354 -14.1089 225.518 -14.085 225.682 -14.0359C225.844 -13.9849 226.001 -13.9157 226.153 -13.8284C226.303 -13.7434 226.446 -13.6439 226.58 -13.5297C226.717 -13.4176 226.841 -13.2967 226.951 -13.1671C227.163 -12.9197 227.317 -12.6565 227.412 -12.3776C227.504 -12.0991 227.534 -11.8161 227.502 -11.5285C227.466 -11.2412 227.364 -10.9554 227.195 -10.6708C227.027 -10.3863 226.786 -10.1145 226.473 -9.85553C226.22 -9.64594 225.951 -9.48789 225.666 -9.38139C225.38 -9.27724 225.096 -9.23079 224.813 -9.24204C224.527 -9.25132 224.25 -9.32206 223.982 -9.45427C223.712 -9.5845 223.466 -9.77921 223.244 -10.0384C223.061 -10.2528 222.929 -10.4814 222.847 -10.7241C222.762 -10.9672 222.732 -11.212 222.758 -11.4587C222.779 -11.7057 222.859 -11.9509 222.998 -12.1944C223.134 -12.4359 223.331 -12.6634 223.589 -12.8769C223.689 -12.9599 223.765 -13.0047 223.817 -13.0112C223.868 -13.0177 223.919 -12.9914 223.97 -12.9325L226.016 -10.5398C226.239 -10.7367 226.413 -10.9324 226.536 -11.127C226.657 -11.324 226.733 -11.5194 226.763 -11.7132C226.79 -11.9051 226.774 -12.0931 226.715 -12.2772C226.653 -12.4594 226.55 -12.6352 226.404 -12.8049C226.269 -12.9628 226.136 -13.0834 226.003 -13.1668C225.866 -13.2507 225.741 -13.316 225.627 -13.3629C225.514 -13.4098 225.416 -13.4455 225.334 -13.47C225.247 -13.4949 225.187 -13.5274 225.152 -13.5675C225.108 -13.6193 225.094 -13.6761 225.111 -13.738L225.192 -14.1075ZM218.277 -17.6778C218.221 -17.4381 218.22 -17.2221 218.275 -17.0297C218.327 -16.8353 218.425 -16.6533 218.57 -16.4837C218.854 -16.1515 219.194 -15.9957 219.588 -16.0163C219.983 -16.0369 220.403 -16.2321 220.85 -16.6019C221.086 -16.7976 221.272 -16.9857 221.408 -17.1661C221.541 -17.3446 221.629 -17.5182 221.672 -17.6869C221.713 -17.8536 221.71 -18.0143 221.664 -18.1689C221.617 -18.3235 221.533 -18.4727 221.41 -18.6164C221.232 -18.8238 221.03 -18.9645 220.804 -19.0385C220.575 -19.1149 220.318 -19.1458 220.033 -19.131L218.277 -17.6778ZM216.879 -17.5951L221.738 -21.6167L222.276 -20.9876L220.506 -19.5225C220.81 -19.5204 221.099 -19.4682 221.375 -19.366C221.647 -19.2617 221.889 -19.0859 222.101 -18.8385C222.276 -18.6335 222.396 -18.4148 222.46 -18.1822C222.522 -17.9477 222.526 -17.7073 222.471 -17.461C222.417 -17.2146 222.301 -16.9638 222.124 -16.7084C221.946 -16.453 221.707 -16.2007 221.406 -15.9516C221.139 -15.7301 220.86 -15.5598 220.57 -15.4407C220.278 -15.3196 219.991 -15.2548 219.708 -15.2464C219.426 -15.2379 219.155 -15.2896 218.896 -15.4014C218.633 -15.5135 218.399 -15.6897 218.193 -15.9301C217.994 -16.1633 217.866 -16.3958 217.811 -16.6276C217.755 -16.8594 217.749 -17.1 217.793 -17.3495L217.477 -17.1605C217.369 -17.1109 217.276 -17.1309 217.2 -17.2204L216.879 -17.5951ZM213.31 -21.7684L216.94 -24.7728L217.261 -24.3981C217.337 -24.3086 217.341 -24.2155 217.273 -24.1187L216.925 -23.746C217.232 -23.7348 217.522 -23.6771 217.795 -23.5729C218.065 -23.4667 218.307 -23.2887 218.521 -23.0389C218.688 -22.8434 218.804 -22.6435 218.868 -22.4393C218.929 -22.2355 218.942 -22.0335 218.909 -21.8334C218.877 -21.6332 218.798 -21.437 218.672 -21.2448C218.545 -21.0549 218.379 -20.8749 218.173 -20.7049L215.858 -18.789L215.32 -19.4181L217.635 -21.334C217.91 -21.5614 218.07 -21.7986 218.116 -22.0457C218.159 -22.2951 218.073 -22.5471 217.855 -22.8016C217.696 -22.9877 217.503 -23.1243 217.278 -23.2114C217.048 -23.2988 216.796 -23.3456 216.521 -23.3518L213.848 -21.1393L213.31 -21.7684ZM211.625 -26.5722C211.477 -26.4496 211.36 -26.3167 211.275 -26.1734C211.185 -26.0305 211.13 -25.8825 211.11 -25.7292C211.086 -25.5763 211.098 -25.4236 211.147 -25.2709C211.194 -25.1163 211.278 -24.9671 211.401 -24.8234C211.659 -24.5218 211.953 -24.3568 212.284 -24.3284C212.609 -24.3003 212.948 -24.3956 213.3 -24.6142L211.625 -26.5722ZM212.892 -28.4899C213.054 -28.4912 213.217 -28.4674 213.382 -28.4183C213.544 -28.3672 213.701 -28.2981 213.853 -28.2108C214.003 -28.1258 214.145 -28.0262 214.28 -27.9121C214.416 -27.7999 214.54 -27.679 214.651 -27.5494C214.863 -27.302 215.016 -27.0389 215.112 -26.76C215.203 -26.4815 215.233 -26.1984 215.202 -25.9108C215.166 -25.6236 215.064 -25.3377 214.895 -25.0532C214.726 -24.7687 214.485 -24.4969 214.172 -24.2379C213.919 -24.0283 213.65 -23.8702 213.366 -23.7637C213.08 -23.6596 212.795 -23.6131 212.512 -23.6244C212.227 -23.6337 211.95 -23.7044 211.682 -23.8366C211.412 -23.9669 211.165 -24.1616 210.944 -24.4207C210.76 -24.6352 210.628 -24.8637 210.547 -25.1064C210.462 -25.3495 210.432 -25.5944 210.457 -25.841C210.479 -26.088 210.559 -26.3333 210.697 -26.5767C210.833 -26.8182 211.031 -27.0457 211.289 -27.2593C211.389 -27.3423 211.465 -27.3871 211.516 -27.3935C211.568 -27.4 211.619 -27.3738 211.669 -27.3149L213.716 -24.9222C213.939 -25.1191 214.112 -25.3148 214.236 -25.5094C214.357 -25.7063 214.432 -25.9017 214.462 -26.0956C214.49 -26.2875 214.474 -26.4755 214.415 -26.6596C214.353 -26.8417 214.249 -27.0176 214.104 -27.1872C213.969 -27.3451 213.835 -27.4658 213.703 -27.5492C213.566 -27.633 213.441 -27.6984 213.327 -27.7452C213.213 -27.7921 213.116 -27.8278 213.033 -27.8524C212.947 -27.8773 212.886 -27.9098 212.852 -27.9498C212.808 -28.0016 212.794 -28.0585 212.81 -28.1204L212.892 -28.4899ZM209.077 -28.1709C208.732 -28.0784 208.419 -28.0572 208.14 -28.1075C207.858 -28.1558 207.615 -28.2989 207.411 -28.5369C207.347 -28.6123 207.294 -28.691 207.252 -28.7732C207.208 -28.8577 207.181 -28.9419 207.171 -29.0258L207.687 -29.3743C207.758 -29.4096 207.818 -29.3989 207.867 -29.3424C207.895 -29.3094 207.929 -29.2552 207.969 -29.1797C208.009 -29.1042 208.064 -29.0264 208.132 -28.9463C208.229 -28.8332 208.332 -28.7457 208.442 -28.6839C208.55 -28.6244 208.668 -28.587 208.795 -28.5717C208.918 -28.5567 209.053 -28.5615 209.199 -28.586C209.341 -28.6109 209.493 -28.6524 209.656 -28.7104L211.949 -30.6086L212.49 -29.9759L208.86 -26.9715L208.552 -27.332C208.493 -27.4004 208.466 -27.4584 208.47 -27.506C208.475 -27.5537 208.505 -27.6089 208.561 -27.6717L209.077 -28.1709ZM205.95 -33.2077C205.802 -33.0851 205.685 -32.9522 205.6 -32.8089C205.51 -32.6661 205.455 -32.518 205.435 -32.3647C205.411 -32.2118 205.423 -32.0591 205.472 -31.9064C205.519 -31.7518 205.603 -31.6026 205.726 -31.4589C205.984 -31.1573 206.278 -30.9923 206.609 -30.9639C206.934 -30.9358 207.273 -31.0311 207.625 -31.2497L205.95 -33.2077ZM207.217 -35.1254C207.379 -35.1267 207.542 -35.1029 207.707 -35.0538C207.869 -35.0027 208.026 -34.9336 208.178 -34.8463C208.328 -34.7613 208.47 -34.6617 208.605 -34.5476C208.742 -34.4354 208.865 -34.3145 208.976 -34.1849C209.188 -33.9375 209.341 -33.6744 209.437 -33.3955C209.528 -33.117 209.558 -32.8339 209.527 -32.5463C209.491 -32.2591 209.389 -31.9732 209.22 -31.6887C209.051 -31.4042 208.81 -31.1324 208.497 -30.8734C208.244 -30.6638 207.976 -30.5057 207.691 -30.3992C207.405 -30.2951 207.12 -30.2486 206.837 -30.2599C206.552 -30.2692 206.275 -30.3399 206.007 -30.4721C205.737 -30.6024 205.491 -30.7971 205.269 -31.0562C205.086 -31.2707 204.953 -31.4992 204.872 -31.7419C204.787 -31.985 204.757 -32.2299 204.782 -32.4765C204.804 -32.7235 204.884 -32.9688 205.022 -33.2122C205.159 -33.4537 205.356 -33.6812 205.614 -33.8948C205.714 -33.9778 205.79 -34.0226 205.841 -34.029C205.893 -34.0355 205.944 -34.0093 205.994 -33.9504L208.041 -31.5577C208.264 -31.7546 208.437 -31.9503 208.561 -32.1449C208.682 -32.3418 208.757 -32.5372 208.788 -32.7311C208.815 -32.923 208.799 -33.111 208.74 -33.2951C208.678 -33.4772 208.574 -33.6531 208.429 -33.8227C208.294 -33.9806 208.16 -34.1013 208.028 -34.1847C207.891 -34.2685 207.766 -34.3339 207.652 -34.3807C207.539 -34.4276 207.441 -34.4633 207.359 -34.4879C207.272 -34.5128 207.211 -34.5453 207.177 -34.5853C207.133 -34.6371 207.119 -34.694 207.135 -34.7559L207.217 -35.1254ZM206.815 -36.6114L203.185 -33.607L202.862 -33.9852C202.785 -34.0747 202.782 -34.1667 202.852 -34.2611L203.186 -34.6154C202.908 -34.611 202.646 -34.6477 202.4 -34.7256C202.154 -34.8036 201.938 -34.9509 201.753 -35.1677C201.547 -35.408 201.449 -35.6587 201.458 -35.9199C201.465 -36.1834 201.557 -36.444 201.732 -36.7018C201.556 -36.6449 201.386 -36.6169 201.222 -36.6179C201.056 -36.6213 200.899 -36.648 200.75 -36.6979C200.601 -36.7478 200.464 -36.8174 200.339 -36.9068C200.211 -36.9985 200.097 -37.1033 199.996 -37.2211C199.835 -37.4096 199.723 -37.6026 199.66 -37.8001C199.593 -37.9979 199.575 -38.196 199.605 -38.3942C199.634 -38.5947 199.711 -38.7933 199.836 -38.9898C199.96 -39.1844 200.131 -39.3726 200.351 -39.5545L202.662 -41.4675L203.203 -40.8349L200.892 -38.9219C200.608 -38.6866 200.445 -38.4474 200.404 -38.2043C200.361 -37.9592 200.438 -37.7212 200.635 -37.4903C200.724 -37.3866 200.828 -37.3034 200.947 -37.2408C201.061 -37.1786 201.184 -37.1418 201.316 -37.1304C201.448 -37.1191 201.588 -37.1377 201.734 -37.1862C201.876 -37.2351 202.018 -37.3189 202.161 -37.4375L204.473 -39.3505L205.014 -38.7179L202.702 -36.8049C202.411 -36.5637 202.243 -36.326 202.198 -36.0919C202.154 -35.8578 202.226 -35.6301 202.416 -35.4086C202.549 -35.2531 202.715 -35.1449 202.913 -35.0842C203.11 -35.0214 203.328 -34.995 203.569 -35.0049L206.274 -37.2441L206.815 -36.6114ZM193.747 -44.6431L197.377 -47.6475L197.697 -47.2728C197.774 -47.1833 197.778 -47.0902 197.71 -46.9935L197.361 -46.6207C197.669 -46.6095 197.959 -46.5518 198.232 -46.4476C198.502 -46.3414 198.744 -46.1634 198.958 -45.9137C199.125 -45.7181 199.241 -45.5182 199.305 -45.314C199.365 -45.1102 199.379 -44.9083 199.346 -44.7081C199.313 -44.5079 199.234 -44.3117 199.109 -44.1195C198.982 -43.9296 198.815 -43.7497 198.61 -43.5796L196.295 -41.6637L195.757 -42.2928L198.072 -44.2087C198.347 -44.4361 198.507 -44.6733 198.552 -44.9204C198.596 -45.1699 198.509 -45.4218 198.292 -45.6763C198.132 -45.8624 197.94 -45.999 197.715 -46.0861C197.485 -46.1735 197.233 -46.2203 196.958 -46.2265L194.285 -44.014L193.747 -44.6431ZM196.322 -48.8806L192.692 -45.8762L192.369 -46.2544C192.292 -46.3439 192.289 -46.4358 192.359 -46.5302L192.693 -46.8846C192.415 -46.8801 192.153 -46.9168 191.907 -46.9948C191.661 -47.0727 191.445 -47.2201 191.26 -47.4368C191.054 -47.6772 190.956 -47.9279 190.965 -48.189C190.972 -48.4525 191.064 -48.7132 191.239 -48.9709C191.063 -48.914 190.893 -48.8861 190.729 -48.8871C190.563 -48.8905 190.406 -48.9171 190.257 -48.967C190.108 -49.0169 189.971 -49.0866 189.846 -49.1759C189.718 -49.2677 189.604 -49.3724 189.503 -49.4902C189.342 -49.6787 189.23 -49.8717 189.167 -50.0692C189.1 -50.2671 189.082 -50.4651 189.112 -50.6633C189.141 -50.8639 189.218 -51.0624 189.343 -51.259C189.467 -51.4536 189.638 -51.6418 189.858 -51.8237L192.169 -53.7367L192.71 -53.104L190.399 -51.1911C190.115 -50.9558 189.952 -50.7166 189.911 -50.4734C189.868 -50.2283 189.945 -49.9903 190.142 -49.7594C190.231 -49.6557 190.335 -49.5726 190.454 -49.51C190.568 -49.4478 190.691 -49.411 190.823 -49.3996C190.955 -49.3882 191.095 -49.4068 191.241 -49.4553C191.383 -49.5043 191.525 -49.588 191.668 -49.7067L193.98 -51.6196L194.521 -50.987L192.209 -49.074C191.918 -48.8328 191.75 -48.5952 191.705 -48.3611C191.661 -48.127 191.733 -47.8992 191.923 -47.6777C192.056 -47.5222 192.222 -47.4141 192.42 -47.3533C192.617 -47.2906 192.835 -47.2641 193.076 -47.274L195.781 -49.5132L196.322 -48.8806ZM277.627 27.7649L273.997 30.7693L273.674 30.3911C273.597 30.3016 273.594 30.2096 273.664 30.1153L273.998 29.7609C273.72 29.7654 273.458 29.7286 273.212 29.6507C272.966 29.5728 272.75 29.4254 272.564 29.2086C272.359 28.9683 272.261 28.7176 272.27 28.4564C272.277 28.1929 272.368 27.9323 272.544 27.6745C272.368 27.7314 272.198 27.7594 272.034 27.7584C271.868 27.755 271.711 27.7284 271.562 27.6784C271.413 27.6285 271.276 27.5589 271.151 27.4695C271.023 27.3778 270.909 27.273 270.808 27.1552C270.647 26.9667 270.535 26.7737 270.472 26.5762C270.405 26.3784 270.387 26.1803 270.417 25.9821C270.445 25.7816 270.522 25.583 270.648 25.3865C270.771 25.1919 270.943 25.0037 271.163 24.8218L273.474 22.9088L274.015 23.5414L271.704 25.4544C271.419 25.6897 271.257 25.9289 271.216 26.172C271.173 26.4171 271.25 26.6551 271.447 26.8861C271.536 26.9897 271.64 27.0729 271.758 27.1355C271.873 27.1977 271.996 27.2345 272.128 27.2459C272.26 27.2572 272.399 27.2387 272.546 27.1901C272.687 27.1412 272.83 27.0574 272.973 26.9388L275.285 25.0258L275.826 25.6585L273.514 27.5714C273.223 27.8126 273.055 28.0503 273.01 28.2844C272.966 28.5185 273.038 28.7463 273.227 28.9677C273.36 29.1232 273.526 29.2314 273.725 29.2921C273.922 29.3549 274.14 29.3813 274.381 29.3715L277.086 27.1323L277.627 27.7649ZM266.307 21.7774L269.937 18.773L270.257 19.1476C270.334 19.2372 270.338 19.3303 270.27 19.427L269.922 19.7998C270.229 19.8109 270.519 19.8686 270.792 19.9729C271.062 20.0791 271.304 20.2571 271.518 20.5068C271.685 20.7024 271.801 20.9023 271.865 21.1064C271.925 21.3102 271.939 21.5122 271.906 21.7124C271.873 21.9126 271.794 22.1088 271.669 22.301C271.542 22.4909 271.375 22.6708 271.17 22.8409L268.855 24.7568L268.317 24.1277L270.632 22.2118C270.907 21.9844 271.067 21.7471 271.113 21.5001C271.156 21.2506 271.069 20.9987 270.852 20.7442C270.692 20.5581 270.5 20.4215 270.275 20.3344C270.045 20.2469 269.793 20.2001 269.518 20.194L266.845 22.4065L266.307 21.7774ZM265.271 19.5146C265.116 19.51 264.966 19.4937 264.82 19.4659C264.673 19.438 264.534 19.3965 264.401 19.3415C264.264 19.286 264.136 19.2149 264.017 19.1283C263.893 19.0413 263.777 18.9342 263.669 18.8069C263.501 18.6114 263.388 18.4117 263.328 18.2079C263.263 18.0037 263.249 17.8017 263.287 17.6019C263.319 17.4017 263.398 17.2055 263.524 17.0133C263.649 16.8211 263.814 16.64 264.02 16.4699L266.331 14.557L266.872 15.1896L264.561 17.1026C264.286 17.33 264.127 17.5684 264.083 17.8178C264.035 18.0669 264.119 18.3175 264.335 18.5696C264.494 18.7557 264.688 18.8925 264.918 18.9799C265.146 19.065 265.396 19.1116 265.668 19.1198L268.341 16.9073L268.882 17.5399L265.252 20.5443L264.929 20.1661C264.852 20.0766 264.849 19.9846 264.919 19.8903L265.271 19.5146ZM260.548 13.3198C260.489 13.57 260.487 13.7892 260.542 13.9773C260.594 14.1673 260.693 14.3472 260.838 14.5168C261.122 14.849 261.461 15.0048 261.856 14.9842C262.25 14.9636 262.671 14.7684 263.117 14.3986C263.354 14.2029 263.54 14.0148 263.675 13.8344C263.808 13.6559 263.896 13.4823 263.94 13.3136C263.981 13.1469 263.978 12.9862 263.931 12.8316C263.885 12.677 263.8 12.5278 263.677 12.3841C263.5 12.1767 263.298 12.036 263.071 11.962C262.843 11.8855 262.586 11.8547 262.301 11.8695L260.548 13.3198ZM257.498 14.7697L262.777 10.401L263.097 10.7757C263.174 10.8652 263.178 10.9583 263.11 11.055L262.717 11.4764C263.035 11.4753 263.334 11.5251 263.616 11.6258C263.898 11.7264 264.149 11.9052 264.369 12.162C264.544 12.367 264.664 12.5857 264.728 12.8183C264.79 13.0528 264.793 13.2932 264.739 13.5395C264.684 13.7859 264.568 14.0367 264.391 14.2921C264.214 14.5475 263.975 14.7998 263.674 15.0489C263.406 15.2704 263.127 15.4407 262.838 15.5598C262.545 15.6809 262.258 15.7457 261.976 15.7541C261.693 15.7626 261.423 15.7109 261.164 15.5991C260.901 15.487 260.666 15.3108 260.461 15.0704C260.273 14.8513 260.151 14.6324 260.095 14.4136C260.034 14.1944 260.018 13.9682 260.047 13.735L258.037 15.3988L257.498 14.7697ZM256.748 10.7145C256.524 10.453 256.367 10.1808 256.276 9.8979C256.185 9.61505 256.157 9.33217 256.192 9.04928C256.228 8.76639 256.328 8.49017 256.494 8.22063C256.654 7.9507 256.877 7.6981 257.161 7.46281C257.448 7.22554 257.74 7.05206 258.038 6.94235C258.334 6.83029 258.626 6.78126 258.916 6.79525C259.205 6.80923 259.484 6.8845 259.752 7.02104C260.017 7.15956 260.261 7.35959 260.485 7.62113C260.711 7.88502 260.871 8.15858 260.967 8.44182C261.058 8.72468 261.085 9.00755 261.05 9.29044C261.014 9.57333 260.916 9.84974 260.755 10.1197C260.592 10.3872 260.368 10.6396 260.081 10.8769C259.797 11.1122 259.507 11.2859 259.211 11.3979C258.911 11.5096 258.616 11.5585 258.326 11.5445C258.037 11.5305 257.758 11.4552 257.491 11.3187C257.221 11.1798 256.973 10.9784 256.748 10.7145ZM259.987 8.03338C259.685 7.67995 259.34 7.51492 258.952 7.53828C258.561 7.56363 258.151 7.75425 257.721 8.11015C257.289 8.46803 257.026 8.83399 256.934 9.20805C256.842 9.58211 256.947 9.94585 257.249 10.2993C257.402 10.4783 257.567 10.6093 257.744 10.6922C257.919 10.7728 258.104 10.8094 258.297 10.802C258.489 10.7923 258.69 10.7387 258.9 10.6411C259.106 10.5431 259.316 10.4051 259.532 10.2272C259.962 9.87127 260.223 9.5063 260.315 9.13224C260.403 8.7578 260.293 8.39152 259.987 8.03338ZM251.23 2.86031C251.272 2.85741 251.309 2.85945 251.339 2.86644C251.37 2.87343 251.399 2.89341 251.427 2.9264C251.457 2.96174 251.476 3.01248 251.484 3.07862C251.489 3.14673 251.501 3.22743 251.52 3.3207C251.536 3.41162 251.569 3.51489 251.619 3.63051C251.665 3.74575 251.744 3.86934 251.857 4.00129C252.008 4.178 252.173 4.30681 252.353 4.38773C252.53 4.47063 252.717 4.50859 252.915 4.50162C253.111 4.49229 253.314 4.441 253.524 4.34774C253.732 4.25212 253.941 4.11732 254.151 3.94332C254.371 3.76142 254.546 3.57455 254.675 3.38271C254.803 3.19284 254.887 3.0047 254.927 2.81829C254.963 2.63149 254.958 2.44877 254.911 2.27013C254.86 2.09111 254.766 1.92149 254.629 1.76127C254.498 1.60811 254.372 1.49689 254.252 1.42759C254.129 1.36026 254.018 1.31358 253.918 1.28753C253.816 1.25912 253.729 1.23854 253.657 1.22579C253.58 1.21266 253.524 1.18488 253.488 1.14247C253.443 1.09064 253.429 1.03378 253.446 0.971889L253.528 0.602397C253.692 0.599084 253.851 0.618238 254.005 0.659858C254.159 0.701478 254.309 0.760242 254.456 0.836151C254.598 0.91168 254.733 1.00299 254.861 1.11007C254.99 1.21715 255.109 1.33549 255.22 1.46508C255.412 1.68891 255.548 1.93204 255.63 2.19445C255.709 2.4545 255.731 2.72046 255.694 2.99233C255.655 3.26617 255.554 3.53905 255.39 3.81095C255.227 4.08285 254.998 4.34138 254.701 4.58656C254.431 4.80999 254.15 4.98009 253.859 5.09686C253.565 5.21127 253.275 5.26601 252.989 5.26107C252.699 5.25575 252.419 5.18797 252.148 5.05774C251.876 4.92515 251.624 4.72337 251.392 4.45241C251.176 4.2003 251.029 3.94422 250.949 3.68417C250.865 3.42374 250.835 3.15702 250.858 2.88401L251.23 2.86031ZM248.333 0.875146C248.109 0.613611 247.952 0.341414 247.861 0.058557C247.77 -0.2243 247.742 -0.507174 247.777 -0.790064C247.813 -1.07295 247.913 -1.34917 248.079 -1.61872C248.239 -1.88864 248.462 -2.14125 248.746 -2.37654C249.033 -2.6138 249.325 -2.78729 249.623 -2.89699C249.919 -3.00905 250.211 -3.05809 250.501 -3.0441C250.79 -3.03011 251.069 -2.95485 251.337 -2.8183C251.602 -2.67978 251.846 -2.47975 252.07 -2.21822C252.296 -1.95433 252.456 -1.68076 252.552 -1.39753C252.643 -1.11467 252.67 -0.831796 252.635 -0.548905C252.599 -0.266015 252.501 0.0103922 252.34 0.280316C252.178 0.547883 251.953 0.8003 251.666 1.03757C251.382 1.27286 251.092 1.44653 250.796 1.55859C250.496 1.67027 250.201 1.71912 249.911 1.70513C249.622 1.69114 249.343 1.61588 249.076 1.47933C248.806 1.34043 248.558 1.13904 248.333 0.875146ZM251.572 -1.80597C251.27 -2.15939 250.925 -2.32443 250.537 -2.30106C250.146 -2.27572 249.736 -2.0851 249.306 -1.7292C248.874 -1.37132 248.611 -1.00535 248.519 -0.631296C248.427 -0.257239 248.532 0.106503 248.834 0.45993C248.987 0.638999 249.152 0.769981 249.329 0.852876C249.504 0.933414 249.689 0.970008 249.882 0.962659C250.074 0.952954 250.275 0.899305 250.485 0.801712C250.691 0.703741 250.902 0.56578 251.117 0.38783C251.547 0.0319297 251.808 -0.333049 251.9 -0.707105C251.988 -1.08154 251.878 -1.44783 251.572 -1.80597ZM249.679 -4.91375L246.049 -1.90936L245.726 -2.28752C245.649 -2.37706 245.646 -2.46901 245.716 -2.56337L246.05 -2.91776C245.772 -2.91328 245.51 -2.95001 245.264 -3.02794C245.018 -3.10588 244.802 -3.25323 244.616 -3.47C244.411 -3.71033 244.313 -3.96106 244.322 -4.2222C244.329 -4.4857 244.42 -4.74633 244.596 -5.00409C244.42 -4.94718 244.25 -4.91924 244.086 -4.92026C243.92 -4.92364 243.763 -4.95028 243.614 -5.00019C243.465 -5.05009 243.328 -5.11973 243.203 -5.2091C243.075 -5.30083 242.961 -5.4056 242.86 -5.52341C242.699 -5.7119 242.587 -5.90489 242.524 -6.10238C242.457 -6.30025 242.439 -6.49829 242.469 -6.69649C242.497 -6.89704 242.574 -7.0956 242.7 -7.29215C242.823 -7.48672 242.995 -7.67496 243.215 -7.85687L245.526 -9.76983L246.067 -9.1372L243.756 -7.22423C243.471 -6.98895 243.309 -6.74973 243.268 -6.5066C243.225 -6.26149 243.302 -6.02349 243.499 -5.79258C243.588 -5.68891 243.692 -5.60577 243.81 -5.54316C243.925 -5.48092 244.048 -5.44412 244.18 -5.43275C244.312 -5.42138 244.451 -5.43997 244.598 -5.48851C244.739 -5.53743 244.882 -5.62121 245.025 -5.73984L247.337 -7.65281L247.878 -7.02017L245.566 -5.10721C245.275 -4.86599 245.107 -4.62833 245.062 -4.39425C245.018 -4.16016 245.09 -3.93238 245.279 -3.7109C245.412 -3.55539 245.578 -3.44725 245.777 -3.38649C245.974 -3.32374 246.192 -3.29731 246.433 -3.30718L249.138 -5.54638L249.679 -4.91375ZM242.759 -13.0057L239.129 -10.0014L238.805 -10.3795C238.729 -10.4691 238.725 -10.561 238.796 -10.6554L239.129 -11.0098C238.851 -11.0053 238.589 -11.042 238.343 -11.1199C238.097 -11.1979 237.881 -11.3452 237.696 -11.562C237.49 -11.8023 237.392 -12.0531 237.401 -12.3142C237.409 -12.5777 237.5 -12.8383 237.675 -13.0961C237.499 -13.0392 237.33 -13.0112 237.165 -13.0123C236.999 -13.0156 236.842 -13.0423 236.693 -13.0922C236.544 -13.1421 236.407 -13.2117 236.282 -13.3011C236.155 -13.3928 236.04 -13.4976 235.94 -13.6154C235.779 -13.8039 235.667 -13.9969 235.604 -14.1944C235.536 -14.3923 235.518 -14.5903 235.548 -14.7885C235.577 -14.989 235.654 -15.1876 235.78 -15.3841C235.903 -15.5787 236.074 -15.767 236.294 -15.9489L238.605 -17.8618L239.146 -17.2292L236.835 -15.3162C236.551 -15.0809 236.388 -14.8417 236.347 -14.5986C236.304 -14.3535 236.381 -14.1155 236.579 -13.8846C236.667 -13.7809 236.771 -13.6978 236.89 -13.6352C237.004 -13.5729 237.127 -13.5361 237.26 -13.5248C237.392 -13.5134 237.531 -13.532 237.677 -13.5805C237.819 -13.6294 237.961 -13.7132 238.105 -13.8318L240.416 -15.7448L240.957 -15.1122L238.646 -13.1992C238.354 -12.958 238.186 -12.7203 238.142 -12.4862C238.097 -12.2522 238.169 -12.0244 238.359 -11.8029C238.492 -11.6474 238.658 -11.5393 238.857 -11.4785C239.053 -11.4157 239.272 -11.3893 239.512 -11.3992L242.217 -13.6384L242.759 -13.0057ZM234.293 -19.6415C234.55 -19.3596 234.786 -19.1319 234.999 -18.9586C235.208 -18.7856 235.398 -18.6591 235.569 -18.5789C235.737 -18.5011 235.887 -18.4664 236.019 -18.4747C236.148 -18.4854 236.263 -18.5322 236.364 -18.6153C236.459 -18.6943 236.529 -18.7779 236.572 -18.8658C236.615 -18.9538 236.637 -19.0425 236.638 -19.1319C236.635 -19.2217 236.613 -19.3108 236.574 -19.3993C236.531 -19.4882 236.474 -19.5738 236.404 -19.6563C236.309 -19.767 236.212 -19.8594 236.111 -19.9335C236.009 -20.0057 235.902 -20.064 235.79 -20.1085C235.677 -20.1554 235.559 -20.1906 235.437 -20.2142C235.313 -20.2402 235.182 -20.2569 235.045 -20.2643L234.293 -19.6415ZM234.547 -16.3814C234.184 -16.4192 233.858 -16.5128 233.567 -16.6623C233.275 -16.8117 233.011 -17.0255 232.773 -17.3035C232.602 -17.5038 232.483 -17.7093 232.417 -17.9202C232.351 -18.1311 232.332 -18.339 232.361 -18.5438C232.39 -18.7487 232.466 -18.9485 232.589 -19.143C232.713 -19.3376 232.876 -19.5189 233.079 -19.687L235.401 -21.6089L235.64 -21.3297C235.692 -21.2684 235.723 -21.2134 235.732 -21.1646C235.739 -21.1138 235.72 -21.0542 235.677 -20.986L235.393 -20.6306C235.562 -20.6095 235.719 -20.5828 235.865 -20.5506C236.009 -20.5165 236.147 -20.4697 236.279 -20.4102C236.409 -20.3489 236.534 -20.2715 236.655 -20.1782C236.776 -20.0892 236.895 -19.9764 237.012 -19.8397C237.131 -19.7007 237.223 -19.5541 237.29 -19.3999C237.354 -19.2438 237.386 -19.0872 237.386 -18.93C237.384 -18.7752 237.346 -18.6213 237.273 -18.4683C237.195 -18.3156 237.074 -18.171 236.909 -18.0346C236.766 -17.916 236.595 -17.8412 236.397 -17.8102C236.197 -17.7772 235.971 -17.8054 235.719 -17.8947C235.467 -17.9841 235.189 -18.1422 234.885 -18.3692C234.578 -18.5943 234.246 -18.9066 233.888 -19.3063L233.605 -19.072C233.323 -18.8387 233.162 -18.6027 233.121 -18.3639C233.078 -18.1231 233.155 -17.8873 233.353 -17.6563C233.486 -17.5008 233.618 -17.3869 233.749 -17.3145C233.876 -17.2424 233.998 -17.1883 234.115 -17.1521C234.227 -17.1162 234.327 -17.0868 234.416 -17.0639C234.501 -17.0413 234.566 -17.0029 234.613 -16.9488C234.649 -16.9063 234.67 -16.8609 234.674 -16.8125C234.677 -16.7621 234.67 -16.7125 234.655 -16.6636L234.547 -16.3814ZM230.181 -20.4628L233.812 -23.4672L234.35 -22.8381L230.72 -19.8337L230.181 -20.4628ZM228.927 -19.654C228.989 -19.7054 229.059 -19.7409 229.136 -19.7604C229.209 -19.7804 229.285 -19.7869 229.364 -19.7801C229.439 -19.7737 229.512 -19.752 229.585 -19.7153C229.655 -19.6808 229.716 -19.633 229.769 -19.5717C229.821 -19.5105 229.858 -19.4429 229.881 -19.3689C229.901 -19.2973 229.908 -19.2247 229.902 -19.151C229.893 -19.0754 229.873 -19.004 229.84 -18.9369C229.805 -18.8679 229.757 -18.8077 229.695 -18.7563C229.633 -18.7049 229.564 -18.6682 229.489 -18.6463C229.412 -18.6224 229.335 -18.6137 229.261 -18.6201C229.183 -18.6246 229.111 -18.6428 229.042 -18.6749C228.972 -18.7093 228.911 -18.7572 228.858 -18.8184C228.806 -18.8797 228.769 -18.9473 228.746 -19.0213C228.722 -19.0976 228.714 -19.1736 228.722 -19.2492C228.727 -19.3252 228.748 -19.3988 228.785 -19.4698C228.818 -19.5412 228.865 -19.6026 228.927 -19.654ZM227.911 -24.3126C227.988 -24.3278 228.051 -24.306 228.102 -24.2471C228.132 -24.2117 228.153 -24.1608 228.165 -24.0943C228.177 -24.0278 228.196 -23.9487 228.221 -23.857C228.242 -23.7657 228.278 -23.6644 228.328 -23.5531C228.376 -23.4399 228.452 -23.322 228.557 -23.1995C228.648 -23.0934 228.744 -23.0099 228.845 -22.9488C228.944 -22.8857 229.043 -22.8433 229.143 -22.8216C229.242 -22.8022 229.337 -22.8028 229.43 -22.8232C229.518 -22.8439 229.599 -22.885 229.673 -22.9463C229.766 -23.0234 229.822 -23.1135 229.84 -23.2168C229.855 -23.3224 229.849 -23.4376 229.82 -23.5623C229.79 -23.6871 229.746 -23.8196 229.687 -23.96C229.626 -24.0984 229.567 -24.2422 229.508 -24.3913C229.446 -24.5407 229.391 -24.6906 229.344 -24.8409C229.297 -24.9911 229.272 -25.1395 229.269 -25.286C229.267 -25.4325 229.296 -25.5752 229.356 -25.714C229.413 -25.8532 229.514 -25.9831 229.659 -26.1037C229.827 -26.2422 230.007 -26.3412 230.201 -26.401C230.392 -26.4587 230.59 -26.4734 230.794 -26.4449C230.995 -26.4145 231.197 -26.3403 231.4 -26.2225C231.603 -26.1046 231.798 -25.9361 231.985 -25.717C232.199 -25.4672 232.352 -25.2074 232.444 -24.9376C232.534 -24.6657 232.574 -24.4057 232.566 -24.1576L232.196 -24.1044C232.148 -24.0975 232.105 -24.1001 232.066 -24.1122C232.028 -24.1243 231.991 -24.1503 231.957 -24.1904C231.92 -24.2328 231.899 -24.2914 231.892 -24.3662C231.885 -24.441 231.874 -24.5282 231.858 -24.6278C231.84 -24.7298 231.807 -24.8429 231.758 -24.9672C231.708 -25.0914 231.622 -25.2254 231.499 -25.3692C231.395 -25.4917 231.287 -25.586 231.178 -25.6522C231.066 -25.7164 230.956 -25.7564 230.849 -25.7722C230.741 -25.788 230.64 -25.7804 230.544 -25.7493C230.446 -25.7206 230.357 -25.6727 230.275 -25.6055C230.175 -25.5224 230.116 -25.4271 230.098 -25.3195C230.075 -25.2123 230.078 -25.0964 230.107 -24.9716C230.134 -24.8449 230.179 -24.7111 230.243 -24.5704C230.301 -24.43 230.362 -24.285 230.425 -24.1356C230.485 -23.9885 230.54 -23.8387 230.589 -23.686C230.633 -23.5337 230.656 -23.3834 230.656 -23.2349C230.657 -23.0864 230.627 -22.9406 230.565 -22.7974C230.5 -22.6547 230.389 -22.519 230.234 -22.3905C230.096 -22.2758 229.939 -22.1943 229.764 -22.1461C229.587 -22.0959 229.404 -22.0854 229.215 -22.1147C229.025 -22.142 228.833 -22.2109 228.641 -22.3213C228.449 -22.4317 228.266 -22.5882 228.093 -22.7909C227.891 -23.0265 227.749 -23.269 227.666 -23.5184C227.579 -23.7682 227.543 -24.0158 227.557 -24.2612L227.911 -24.3126ZM224.867 -30.6621C225.125 -30.3802 225.36 -30.1526 225.574 -29.9793C225.783 -29.8063 225.973 -29.6797 226.143 -29.5996C226.312 -29.5218 226.462 -29.487 226.594 -29.4953C226.723 -29.506 226.838 -29.5529 226.938 -29.6359C227.034 -29.715 227.103 -29.7985 227.146 -29.8865C227.19 -29.9745 227.212 -30.0632 227.213 -30.1526C227.209 -30.2423 227.188 -30.3315 227.149 -30.42C227.106 -30.5088 227.049 -30.5945 226.978 -30.6769C226.884 -30.7877 226.786 -30.8801 226.686 -30.9542C226.584 -31.0263 226.477 -31.0846 226.365 -31.1292C226.252 -31.176 226.134 -31.2113 226.012 -31.2349C225.887 -31.2609 225.757 -31.2775 225.62 -31.285L224.867 -30.6621ZM225.122 -27.4021C224.759 -27.4398 224.432 -27.5334 224.141 -27.6829C223.85 -27.8324 223.586 -28.0461 223.348 -28.3241C223.177 -28.5244 223.058 -28.73 222.992 -28.9409C222.926 -29.1517 222.907 -29.3596 222.936 -29.5645C222.965 -29.7694 223.041 -29.9691 223.164 -30.1637C223.287 -30.3583 223.45 -30.5396 223.653 -30.7077L225.976 -32.6295L226.214 -32.3503C226.267 -32.289 226.297 -32.234 226.307 -32.1852C226.313 -32.1344 226.295 -32.0749 226.251 -32.0066L225.968 -31.6512C226.137 -31.6301 226.294 -31.6035 226.44 -31.5713C226.583 -31.5371 226.721 -31.4903 226.854 -31.4309C226.984 -31.3695 227.109 -31.2922 227.23 -31.1988C227.351 -31.1098 227.47 -30.997 227.587 -30.8604C227.705 -30.7213 227.798 -30.5748 227.865 -30.4206C227.929 -30.2645 227.961 -30.1078 227.961 -29.9507C227.958 -29.7959 227.921 -29.642 227.848 -29.4889C227.77 -29.3363 227.649 -29.1917 227.484 -29.0553C227.341 -28.9366 227.17 -28.8618 226.972 -28.8308C226.772 -28.7979 226.546 -28.8261 226.294 -28.9154C226.042 -29.0047 225.764 -29.1629 225.46 -29.3899C225.153 -29.6149 224.821 -29.9273 224.463 -30.327L224.179 -30.0927C223.898 -29.8594 223.736 -29.6233 223.696 -29.3845C223.653 -29.1438 223.73 -28.9079 223.928 -28.677C224.061 -28.5215 224.193 -28.4075 224.324 -28.3351C224.451 -28.2631 224.573 -28.2089 224.689 -28.1727C224.802 -28.1369 224.902 -28.1075 224.991 -28.0845C225.076 -28.062 225.141 -28.0236 225.188 -27.9694C225.224 -27.927 225.244 -27.8816 225.249 -27.8332C225.251 -27.7828 225.245 -27.7331 225.229 -27.6842L225.122 -27.4021ZM224.954 -33.8234L221.324 -30.819L221.001 -31.1972C220.924 -31.2867 220.921 -31.3787 220.992 -31.473L221.325 -31.8274C221.047 -31.823 220.785 -31.8597 220.539 -31.9376C220.293 -32.0155 220.077 -32.1629 219.892 -32.3797C219.686 -32.62 219.588 -32.8707 219.597 -33.1319C219.605 -33.3954 219.696 -33.656 219.871 -33.9138C219.695 -33.8569 219.525 -33.8289 219.361 -33.8299C219.195 -33.8333 219.038 -33.86 218.889 -33.9099C218.74 -33.9598 218.603 -34.0294 218.478 -34.1188C218.351 -34.2105 218.236 -34.3153 218.136 -34.4331C217.974 -34.6216 217.862 -34.8146 217.8 -35.0121C217.732 -35.2099 217.714 -35.408 217.744 -35.6062C217.773 -35.8067 217.85 -36.0053 217.975 -36.2018C218.099 -36.3964 218.27 -36.5846 218.49 -36.7665L220.801 -38.6795L221.342 -38.0469L219.031 -36.1339C218.747 -35.8986 218.584 -35.6594 218.543 -35.4163C218.5 -35.1712 218.577 -34.9332 218.775 -34.7023C218.863 -34.5986 218.967 -34.5154 219.086 -34.4528C219.2 -34.3906 219.323 -34.3538 219.456 -34.3424C219.588 -34.3311 219.727 -34.3496 219.873 -34.3982C220.015 -34.4471 220.157 -34.5309 220.301 -34.6495L222.612 -36.5625L223.153 -35.9298L220.842 -34.0169C220.55 -33.7757 220.382 -33.538 220.338 -33.3039C220.293 -33.0698 220.365 -32.842 220.555 -32.6206C220.688 -32.4651 220.854 -32.3569 221.053 -32.2962C221.249 -32.2334 221.468 -32.207 221.708 -32.2168L224.413 -34.4561L224.954 -33.8234ZM214.804 -38.3285C214.58 -38.5901 214.423 -38.8623 214.332 -39.1451C214.241 -39.428 214.214 -39.7109 214.249 -39.9937C214.285 -40.2766 214.385 -40.5529 214.55 -40.8224C214.711 -41.0923 214.933 -41.3449 215.218 -41.5802C215.504 -41.8175 215.797 -41.991 216.095 -42.1007C216.39 -42.2127 216.683 -42.2618 216.972 -42.2478C217.262 -42.2338 217.54 -42.1585 217.808 -42.022C218.073 -41.8835 218.318 -41.6834 218.542 -41.4219C218.767 -41.158 218.928 -40.8844 219.023 -40.6012C219.114 -40.3184 219.142 -40.0355 219.106 -39.7526C219.071 -39.4697 218.973 -39.1933 218.812 -38.9234C218.649 -38.6558 218.424 -38.4034 218.138 -38.1661C217.853 -37.9308 217.563 -37.7572 217.267 -37.6451C216.967 -37.5334 216.672 -37.4846 216.383 -37.4986C216.094 -37.5125 215.815 -37.5878 215.547 -37.7244C215.278 -37.8632 215.03 -38.0646 214.804 -38.3285ZM218.044 -41.0097C217.741 -41.3631 217.396 -41.5281 217.008 -41.5047C216.618 -41.4794 216.208 -41.2888 215.778 -40.9329C215.345 -40.575 215.083 -40.209 214.991 -39.835C214.899 -39.4609 215.004 -39.0972 215.306 -38.7438C215.459 -38.5647 215.624 -38.4337 215.801 -38.3508C215.976 -38.2703 216.16 -38.2337 216.354 -38.241C216.546 -38.2507 216.746 -38.3044 216.957 -38.402C217.163 -38.4999 217.373 -38.6379 217.588 -38.8159C218.018 -39.1718 218.279 -39.5367 218.371 -39.9108C218.459 -40.2852 218.35 -40.6515 218.044 -41.0097ZM212.737 -42.3124C212.392 -42.2199 212.08 -42.1987 211.8 -42.249C211.518 -42.2973 211.275 -42.4404 211.072 -42.6784C211.007 -42.7537 210.954 -42.8325 210.912 -42.9147C210.869 -42.9992 210.842 -43.0834 210.831 -43.1673L211.347 -43.5158C211.419 -43.5511 211.479 -43.5404 211.527 -43.4839C211.555 -43.4509 211.59 -43.3967 211.63 -43.3212C211.67 -43.2457 211.724 -43.1679 211.793 -43.0878C211.889 -42.9747 211.993 -42.8872 212.103 -42.8254C212.211 -42.7659 212.328 -42.7285 212.456 -42.7132C212.579 -42.6982 212.713 -42.703 212.86 -42.7275C213.001 -42.7524 213.154 -42.7939 213.316 -42.8519L215.61 -44.7501L216.151 -44.1174L212.521 -41.113L212.212 -41.4735C212.154 -41.5419 212.127 -41.5999 212.131 -41.6475C212.135 -41.6952 212.165 -41.7504 212.222 -41.8132L212.737 -42.3124Z" fill="#FAF4ED"/>
</g>
<path d="M132.045 216.594C133.868 219.961 141.134 216.661 145.729 204.409C150.324 192.156 145.216 185.378 141.949 187.337C140.453 188.234 137.141 193.574 134.954 199.6C132.363 206.736 131.057 214.769 132.045 216.594Z" fill="#49332D"/>
<path d="M126.237 198.328C120.875 213.606 130.964 218.779 130.572 215.437C131.341 200.59 133.484 196.281 139.207 187.994C141.177 185.674 131.599 183.049 126.237 198.328Z" fill="#49332D"/>
<path d="M78.8405 154.236C80.2112 157.811 87.8442 155.483 93.9908 143.93C100.137 132.378 95.9534 124.994 92.4588 126.513C90.859 127.208 86.8822 132.073 83.9311 137.763C80.4358 144.503 78.0973 152.298 78.8405 154.236Z" fill="#49332D"/>
<path d="M75.4532 135.37C68.1531 149.823 77.485 156.262 77.5297 152.897C80.2204 138.275 82.9045 134.282 89.6552 126.808C91.9097 124.764 82.7534 120.917 75.4532 135.37Z" fill="#49332D"/>
<path d="M191.1 270.482C190.263 274.218 197.909 276.504 209.423 270.285C220.937 264.067 221.539 255.601 217.788 254.931C216.071 254.625 210.066 256.475 204.459 259.581C197.817 263.259 191.554 268.456 191.1 270.482Z" fill="#49332D"/>
<path d="M198.723 252.895C184.643 260.891 188.85 271.419 190.75 268.641C201.085 257.953 205.531 256.113 215.29 253.626C218.299 253.171 212.803 244.899 198.723 252.895Z" fill="#49332D"/>
<path d="M31.0452 210.594C32.8684 213.961 40.1345 210.661 44.7292 198.409C49.3239 186.156 44.2165 179.378 40.9487 181.337C39.4527 182.234 36.1411 187.574 33.9539 193.6C31.3633 200.736 30.0567 208.769 31.0452 210.594Z" fill="#49332D"/>
<path d="M25.2371 192.328C19.8753 207.606 29.9642 212.779 29.5716 209.437C30.3411 194.59 32.484 190.281 38.2072 181.994C40.1771 179.674 30.5988 177.049 25.2371 192.328Z" fill="#49332D"/>
<path d="M31.0452 210.594C32.8684 213.961 40.1345 210.661 44.7292 198.409C49.3239 186.156 44.2165 179.378 40.9487 181.337C39.4527 182.234 36.1411 187.574 33.9539 193.6C31.3633 200.736 30.0567 208.769 31.0452 210.594Z" fill="#49332D"/>
<path d="M25.2371 192.328C19.8753 207.606 29.9642 212.779 29.5716 209.437C30.3411 194.59 32.484 190.281 38.2072 181.994C40.1771 179.674 30.5988 177.049 25.2371 192.328Z" fill="#49332D"/>
<defs>
<filter id="filter0_d_631_24288" x="40.434" y="-183.317" width="408.703" height="389.772" filterUnits="userSpaceOnUse" color-interpolation-filters="sRGB">
<feFlood flood-opacity="0" result="BackgroundImageFix"/>
<feColorMatrix in="SourceAlpha" type="matrix" values="0 0 0 0 0 0 0 0 0 0 0 0 0 0 0 0 0 0 127 0" result="hardAlpha"/>
<feOffset dy="8"/>
<feGaussianBlur stdDeviation="6"/>
<feColorMatrix type="matrix" values="0 0 0 0 0.196078 0 0 0 0 0.0901961 0 0 0 0 0.027451 0 0 0 0.1 0"/>
<feBlend mode="normal" in2="BackgroundImageFix" result="effect1_dropShadow_631_24288"/>
<feBlend mode="normal" in="SourceGraphic" in2="effect1_dropShadow_631_24288" result="shape"/>
</filter>
</defs>
</svg>
